<?xml version="1.0" encoding="UTF-8" standalone="no"?>
<!DOCTYPE svg PUBLIC "-//W3C//DTD SVG 1.0//EN" "http://www.w3.org/TR/2001/REC-SVG-20010904/DTD/svg10.dtd">
<!-- Generated by Microsoft Visio 11.0, SVG Export, v1.0 page_layout.svg Page-1 -->
<svg xmlns="http://www.w3.org/2000/svg" xmlns:v="http://schemas.microsoft.com/visio/2003/SVGExtensions/" width="1.75228in"
		height="0.689291in" viewBox="0 0 126.164 49.629" xml:space="preserve" color-interpolation-filters="sRGB" class="st8">
	<v:documentProperties v:langID="1033" v:metric="true" v:viewMarkup="false"/>

	<style type="text/css">
	<![CDATA[
		.st1 {fill:#ffffff;stroke:#164326;stroke-linecap:round;stroke-linejoin:round;stroke-width:0.24}
		.st2 {fill:#164326;font-family:Arial;font-size:0.666664em}
		.st3 {fill:#d9d9d9;stroke:#164326;stroke-linecap:round;stroke-linejoin:round;stroke-width:0.24}
		.st4 {fill:none;stroke:none;stroke-linecap:round;stroke-linejoin:round;stroke-width:0.72}
		.st5 {fill:#164326;font-family:Arial;font-size:0.499992em}
		.st6 {fill:#000000}
		.st7 {stroke:#000000;stroke-linecap:round;stroke-linejoin:round;stroke-width:0.239976}
		.st8 {fill:none;fill-rule:evenodd;font-size:12;overflow:visible;stroke-linecap:square;stroke-miterlimit:3}
	]]>
	</style>

	<g v:mID="0" v:index="1" v:groupContext="foregroundPage">
		<title>Page-1</title>
		<v:pageProperties v:drawingScale="0.0393701" v:pageScale="0.0393701" v:drawingUnits="24" v:shadowOffsetX="8.50394"
				v:shadowOffsetY="-8.50394"/>
		<g id="group3-1" transform="translate(0.72,-13.9483)" v:mID="3" v:groupContext="group">
			<title>Sheet.3</title>
			<g id="shape1-2" v:mID="1" v:groupContext="shape" transform="translate(34.6457,-1.13687E-013)">
				<title>Box</title>
				<desc>User Page Data</desc>
				<v:userDefs>
					<v:ud v:nameU="visVersion" v:val="VT0(12):26"/>
				</v:userDefs>
				<v:textBlock v:margins="rect(4,4,4,4)" v:tabSpace="42.5197"/>
				<v:textRect cx="45.0394" cy="39.2353" width="90.08" height="20.7874"/>
				<rect x="0" y="28.8416" width="90.0787" height="20.7874" class="st1"/>
				<text x="16.58" y="41.64" class="st2" v:langID="1033"><v:paragraph v:horizAlign="1"/><v:tabList/>User Page Data</text>			</g>
			<g id="shape2-5" v:mID="2" v:groupContext="shape">
				<title>Box.2</title>
				<desc>Header</desc>
				<v:userDefs>
					<v:ud v:nameU="visVersion" v:val="VT0(12):26"/>
				</v:userDefs>
				<v:textBlock v:margins="rect(4,4,4,4)" v:tabSpace="42.5197"/>
				<v:textRect cx="17.3806" cy="39.2353" width="34.77" height="20.7874"/>
				<rect x="0" y="28.8416" width="34.7612" height="20.7874" class="st3"/>
				<text x="4.26" y="41.64" class="st2" v:langID="1033"><v:paragraph v:horizAlign="1"/><v:tabList/>Header</text>			</g>
		</g>
		<g id="shape4-8" v:mID="4" v:groupContext="shape" transform="translate(0.72,-41.8175)">
			<title>Sheet.4</title>
			<desc>NVMCTRL_PAGE_SIZE Bytes (64)</desc>
			<v:textBlock v:margins="rect(4,4,4,4)" v:tabSpace="42.5197"/>
			<v:textRect cx="62.3622" cy="46.0832" width="124.73" height="7.09146"/>
			<rect x="0" y="42.5375" width="124.724" height="7.09146" class="st4"/>
			<text x="15.02" y="47.88" class="st5" v:langID="1033"><v:paragraph v:horizAlign="1"/><v:tabList/>NVMCTRL_PAGE_SIZE Bytes (64)</text>		</g>
		<g id="shape5-11" v:mID="5" v:groupContext="shape" transform="translate(0.72,-0.72)">
			<title>Sheet.5</title>
			<desc>4 Bytes</desc>
			<v:textBlock v:margins="rect(4,4,4,4)" v:tabSpace="42.5197"/>
			<v:textRect cx="17.7165" cy="46.0832" width="35.44" height="7.09146"/>
			<rect x="0" y="42.5375" width="35.4331" height="7.09146" class="st4"/>
			<text x="7.71" y="47.88" class="st5" v:langID="1033"><v:paragraph v:horizAlign="1"/><v:tabList/>4 Bytes</text>		</g>
		<g id="shape6-14" v:mID="6" v:groupContext="shape" transform="translate(36.1531,-0.72)">
			<title>Sheet.6</title>
			<desc>60 Bytes</desc>
			<v:textBlock v:margins="rect(4,4,4,4)" v:tabSpace="42.5197"/>
			<v:textRect cx="44.6457" cy="46.0832" width="89.3" height="7.09146"/>
			<rect x="0" y="42.5375" width="89.2913" height="7.09146" class="st4"/>
			<text x="32.97" y="47.88" class="st5" v:langID="1033"><v:paragraph v:horizAlign="1"/><v:tabList/>60 Bytes</text>		</g>
		<g id="shape7-17" v:mID="7" v:groupContext="shape" transform="translate(0.72,-8.75392)">
			<title>Single arrowhead</title>
			<v:userDefs>
				<v:ud v:nameU="ControlX" v:val="VT0(0.059055118110236):24"/>
				<v:ud v:nameU="Scale" v:val="VT0(1):26"/>
				<v:ud v:nameU="AntiScale" v:val="VT0(1):26"/>
				<v:ud v:nameU="visVersion" v:val="VT0(12):26"/>
			</v:userDefs>
			<path d="M4.25 47.5 L4.25 51.75 L0 49.63 L4.25 47.5 Z M30.47 47.5 L30.47 51.75 L34.72 49.63 L30.47 47.5 Z" class="st6"/>
			<path d="M4.25 47.5 L4.25 51.75 L0 49.63 L4.25 47.5" class="st7"/>
			<path d="M30.47 47.5 L30.47 51.75 L34.72 49.63 L30.47 47.5" class="st7"/>
			<path d="M4.25 49.63 L30.47 49.63" class="st7"/>
		</g>
		<g id="shape8-22" v:mID="8" v:groupContext="shape" transform="translate(35.4444,-8.75392)">
			<title>Single arrowhead.8</title>
			<v:userDefs>
				<v:ud v:nameU="ControlX" v:val="VT0(0.059055118110236):24"/>
				<v:ud v:nameU="Scale" v:val="VT0(1):26"/>
				<v:ud v:nameU="AntiScale" v:val="VT0(1):26"/>
				<v:ud v:nameU="visVersion" v:val="VT0(12):26"/>
			</v:userDefs>
			<path d="M4.25 47.5 L4.25 51.75 L0 49.63 L4.25 47.5 Z M85.04 47.5 L85.04 51.75 L89.29 49.63 L85.04 47.5 Z" class="st6"/>
			<path d="M4.25 47.5 L4.25 51.75 L0 49.63 L4.25 47.5" class="st7"/>
			<path d="M85.04 47.5 L85.04 51.75 L89.29 49.63 L85.04 47.5" class="st7"/>
			<path d="M4.25 49.63 L85.04 49.63" class="st7"/>
		</g>
		<g id="shape9-27" v:mID="9" v:groupContext="shape" transform="translate(0.72,-40.405)">
			<title>Single arrowhead.9</title>
			<v:userDefs>
				<v:ud v:nameU="ControlX" v:val="VT0(0.059055118110236):24"/>
				<v:ud v:nameU="Scale" v:val="VT0(1):26"/>
				<v:ud v:nameU="AntiScale" v:val="VT0(1):26"/>
				<v:ud v:nameU="visVersion" v:val="VT0(12):26"/>
			</v:userDefs>
			<path d="M4.25 47.5 L4.25 51.75 L0 49.63 L4.25 47.5 Z M120.47 47.5 L120.47 51.75 L124.72 49.63 L120.47 47.5 Z"
					class="st6"/>
			<path d="M4.25 47.5 L4.25 51.75 L0 49.63 L4.25 47.5" class="st7"/>
			<path d="M120.47 47.5 L120.47 51.75 L124.72 49.63 L120.47 47.5" class="st7"/>
			<path d="M4.25 49.63 L120.47 49.63" class="st7"/>
		</g>
	</g>
</svg>
