<?xml version="1.0" encoding="UTF-8" standalone="no"?>
<!DOCTYPE svg PUBLIC "-//W3C//DTD SVG 1.0//EN" "http://www.w3.org/TR/2001/REC-SVG-20010904/DTD/svg10.dtd">
<!-- Generated by Microsoft Visio 11.0, SVG Export, v1.0 gfx_win_event_handling_command_event.svg Command event -->
<svg xmlns="http://www.w3.org/2000/svg" xmlns:v="http://schemas.microsoft.com/visio/2003/SVGExtensions/" width="8.26772in"
		height="11.6929in" viewBox="0 0 595.276 841.89" xml:space="preserve" color-interpolation-filters="sRGB" class="st9">
	<v:documentProperties v:langID="1033" v:viewMarkup="false"/>

	<style type="text/css">
	<![CDATA[
		.st1 {marker-end:url(#mrkr4-6);stroke:#4677bf;stroke-linecap:round;stroke-linejoin:round;stroke-width:1.2}
		.st2 {fill:#4677bf;fill-opacity:1;stroke:#4677bf;stroke-opacity:1;stroke-width:0.32258064516129}
		.st3 {visibility:visible}
		.st4 {fill:#4979c0;fill-opacity:0.2;stroke:#4979c0;stroke-linecap:round;stroke-linejoin:round;stroke-opacity:0.2;stroke-width:2.16}
		.st5 {fill:url(#grad36-12);stroke:#000000;stroke-linecap:round;stroke-linejoin:round;stroke-width:2.16}
		.st6 {fill:#000000;font-family:Arial;font-size:0.666664em}
		.st7 {font-size:1em}
		.st8 {fill:#ffffff;stroke:none;stroke-linecap:butt;stroke-width:7.2}
		.st9 {fill:none;fill-rule:evenodd;font-size:12;overflow:visible;stroke-linecap:square;stroke-miterlimit:3}
	]]>
	</style>

	<defs id="Patterns_And_Gradients">
		<radialGradient id="grad36-12" v:fillPattern="36" v:foreground="#e8eef7" v:background="#b7c9e3" cx="0" cy="0" r="1">
			<stop offset="0" style="stop-color:#e8eef7;stop-opacity:1"/>
			<stop offset="1" style="stop-color:#b7c9e3;stop-opacity:1"/>
		</radialGradient>
	</defs>
	<defs id="Markers">
		<g id="lend4">
			<path d="M 2 1 L 0 0 L 2 -1 L 2 1 " style="stroke:none"/>
		</g>
		<marker id="mrkr4-6" class="st2" v:arrowType="4" v:arrowSize="2" v:setback="6.2" refX="-6.2" orient="auto"
				markerUnits="strokeWidth">
			<use xlink:href="#lend4" transform="scale(-3.1,-3.1) "/>
		</marker>
	</defs>
	<g v:mID="4" v:index="1" v:groupContext="foregroundPage">
		<title>Command event</title>
		<v:pageProperties v:drawingScale="0.0393701" v:pageScale="0.0393701" v:drawingUnits="24" v:shadowOffsetX="4.25197"
				v:shadowOffsetY="-4.25197"/>
		<v:layer v:name="Flowchart" v:index="0"/>
		<v:layer v:name="Connector" v:index="1"/>
		<g id="shape2-1" v:mID="2" v:groupContext="shape" v:layerMember="1" transform="translate(293.622,-554.386)">
			<title>Dynamic connector</title>
			<path d="M7.09 841.89 L7.09 854.29" class="st1"/>
		</g>
		<g id="shape3-7" v:mID="3" v:groupContext="shape" v:layerMember="0" transform="translate(153.071,-372.26)">
			<title>Process.4</title>
			<desc>Discard event</desc>
			<v:custProps>
				<v:cp v:nameU="Cost" v:lbl="Cost" v:type="7" v:format="@" v:langID="1033"/>
				<v:cp v:nameU="Duration" v:lbl="Duration" v:type="2" v:langID="1033"/>
				<v:cp v:nameU="Resources" v:lbl="Resources" v:langID="1033"/>
			</v:custProps>
			<v:userDefs>
				<v:ud v:nameU="visVersion" v:val="VT0(11):26"/>
			</v:userDefs>
			<v:textBlock v:margins="rect(2,2,2,2)" v:tabSpace="42.5197"/>
			<v:textRect cx="35.4331" cy="820.63" width="70.87" height="42.5197"/>
			<g id="shadow3-8" v:groupContext="shadow" v:shadowOffsetX="4.25197" v:shadowOffsetY="-4.25197"
					transform="matrix(1,0,0,1,4.25197,4.25197)" class="st3">
				<rect x="0" y="799.37" width="70.8661" height="42.5197" class="st4"/>
			</g>
			<rect x="0" y="799.37" width="70.8661" height="42.5197" class="st5"/>
			<text x="21.87" y="818.23" class="st6" v:langID="1044"><v:paragraph v:horizAlign="1"/><v:tabList/>Discard<v:newlineChar/><tspan
						x="25.64" dy="1.2em" class="st7">event</tspan></text>		</g>
		<g id="shape6-15" v:mID="6" v:groupContext="shape" v:layerMember="0" transform="translate(336.142,-428.244)">
			<title>Process.6</title>
			<desc>Run event handler for window</desc>
			<v:custProps>
				<v:cp v:nameU="Cost" v:lbl="Cost" v:type="7" v:format="@" v:langID="1033"/>
				<v:cp v:nameU="Duration" v:lbl="Duration" v:type="2" v:langID="1033"/>
				<v:cp v:nameU="Resources" v:lbl="Resources" v:langID="1033"/>
			</v:custProps>
			<v:userDefs>
				<v:ud v:nameU="visVersion" v:val="VT0(11):26"/>
			</v:userDefs>
			<v:textBlock v:margins="rect(2,2,2,2)" v:tabSpace="42.5197"/>
			<v:textRect cx="35.4331" cy="820.63" width="70.87" height="42.5197"/>
			<g id="shadow6-16" v:groupContext="shadow" v:shadowOffsetX="4.25197" v:shadowOffsetY="-4.25197"
					transform="matrix(1,0,0,1,4.25197,4.25197)" class="st3">
				<rect x="0" y="799.37" width="70.8661" height="42.5197" class="st4"/>
			</g>
			<rect x="0" y="799.37" width="70.8661" height="42.5197" class="st5"/>
			<text x="2.74" y="818.23" class="st6" v:langID="1044"><v:paragraph v:horizAlign="1"/><v:tabList/>Run event handler <tspan
						x="16.31" dy="1.2em" class="st7">for window</tspan></text>		</g>
		<g id="shape7-22" v:mID="7" v:groupContext="shape" v:layerMember="0" transform="translate(319.134,-301.535)">
			<title>Decision.8</title>
			<desc>Does the window accept the event?</desc>
			<v:custProps>
				<v:cp v:nameU="Cost" v:lbl="Cost" v:type="7" v:format="@" v:langID="1033"/>
				<v:cp v:nameU="Duration" v:lbl="Duration" v:type="2" v:langID="1033"/>
				<v:cp v:nameU="Resources" v:lbl="Resources" v:langID="1033"/>
			</v:custProps>
			<v:userDefs>
				<v:ud v:nameU="visVersion" v:val="VT0(11):26"/>
			</v:userDefs>
			<v:textBlock v:margins="rect(2,2,2,2)" v:tabSpace="42.5197"/>
			<v:textRect cx="52.4409" cy="810.425" width="87.41" height="47.1969"/>
			<g id="shadow7-23" v:groupContext="shadow" v:shadowOffsetX="4.25197" v:shadowOffsetY="-4.25197"
					transform="matrix(1,0,0,1,4.25197,4.25197)" class="st3">
				<path d="M0 810.43 L52.44 778.96 L104.88 810.43 L52.44 841.89 L0 810.43 Z" class="st4"/>
			</g>
			<path d="M0 810.43 L52.44 778.96 L104.88 810.43 L52.44 841.89 L0 810.43 Z" class="st5"/>
			<text x="21.98" y="808.03" class="st6" v:langID="1044"><v:paragraph v:horizAlign="1"/><v:tabList/>Does the window <tspan
						x="20.86" dy="1.2em" class="st7">accept the event</tspan>?</text>		</g>
		<g id="shape8-29" v:mID="8" v:groupContext="shape" v:layerMember="0" transform="translate(262.441,-263.409)">
			<title>Terminator</title>
			<desc>Done</desc>
			<v:custProps>
				<v:cp v:nameU="Cost" v:lbl="Cost" v:type="7" v:format="@" v:langID="1033"/>
				<v:cp v:nameU="Duration" v:lbl="Duration" v:type="2" v:langID="1033"/>
				<v:cp v:nameU="Resources" v:lbl="Resources" v:langID="1033"/>
			</v:custProps>
			<v:userDefs>
				<v:ud v:nameU="visVersion" v:val="VT0(11):26"/>
			</v:userDefs>
			<v:textBlock v:margins="rect(2,2,2,2)" v:tabSpace="42.5197"/>
			<v:textRect cx="35.4331" cy="827.717" width="70.87" height="28.3465"/>
			<g id="shadow8-30" v:groupContext="shadow" v:shadowOffsetX="4.25197" v:shadowOffsetY="-4.25197"
					transform="matrix(1,0,0,1,4.25197,4.25197)" class="st3">
				<path d="M14.17 841.89 L56.69 841.89 A14.1732 14.1732 -180 0 0 56.69 813.54 L14.17 813.54 A14.1732 14.1732 -180 1
							 0 14.17 841.89 Z" class="st4"/>
			</g>
			<path d="M14.17 841.89 L56.69 841.89 A14.1732 14.1732 -180 0 0 56.69 813.54 L14.17 813.54 A14.1732 14.1732 -180 1 0 14.17
						 841.89 Z" class="st5"/>
			<text x="25.86" y="830.12" class="st6" v:langID="1044"><v:paragraph v:horizAlign="1"/><v:tabList/>Done</text>		</g>
		<g id="shape9-35" v:mID="9" v:groupContext="shape" v:layerMember="0" transform="translate(265.276,-554.386)">
			<title>Terminator.1</title>
			<desc>Command event</desc>
			<v:custProps>
				<v:cp v:nameU="Cost" v:lbl="Cost" v:type="7" v:format="@" v:langID="1033"/>
				<v:cp v:nameU="Duration" v:lbl="Duration" v:type="2" v:langID="1033"/>
				<v:cp v:nameU="Resources" v:lbl="Resources" v:langID="1033"/>
			</v:custProps>
			<v:userDefs>
				<v:ud v:nameU="visVersion" v:val="VT0(11):26"/>
			</v:userDefs>
			<v:textBlock v:margins="rect(2,2,2,2)" v:tabSpace="42.5197"/>
			<v:textRect cx="35.4331" cy="827.717" width="70.87" height="28.3465"/>
			<g id="shadow9-36" v:groupContext="shadow" v:shadowOffsetX="4.25197" v:shadowOffsetY="-4.25197"
					transform="matrix(1,0,0,1,4.25197,4.25197)" class="st3">
				<path d="M14.17 841.89 L56.69 841.89 A14.1732 14.1732 -180 0 0 56.69 813.54 L14.17 813.54 A14.1732 14.1732 -180 1
							 0 14.17 841.89 Z" class="st4"/>
			</g>
			<path d="M14.17 841.89 L56.69 841.89 A14.1732 14.1732 -180 0 0 56.69 813.54 L14.17 813.54 A14.1732 14.1732 -180 1 0 14.17
						 841.89 Z" class="st5"/>
			<text x="6.08" y="830.12" class="st6" v:langID="1044"><v:paragraph v:horizAlign="1"/><v:tabList/>Command event</text>		</g>
		<g id="shape10-41" v:mID="10" v:groupContext="shape" v:layerMember="1" transform="translate(371.575,-301.535)">
			<title>Dynamic connector.9</title>
			<desc>Yes</desc>
			<v:textBlock v:margins="rect(4,4,4,4)" v:tabSpace="42.5197"/>
			<v:textRect cx="-7.15748" cy="865.843" width="40" height="17.6036"/>
			<path d="M0 841.89 L0 865.84 L-30.83 865.84" class="st1"/>
			<rect v:rectContext="textBkgnd" x="-14.4249" y="861.043" width="13.7851" height="9.59985" class="st8"/>
			<text x="-14.05" y="868.24" class="st6" v:langID="1044"><v:paragraph v:horizAlign="1"/><v:tabList/>Yes</text>		</g>
		<g id="shape11-48" v:mID="11" v:groupContext="shape" v:layerMember="1" transform="translate(364.488,-428.244)">
			<title>Dynamic connector.11</title>
			<path d="M7.09 841.89 L7.09 898.23" class="st1"/>
		</g>
		<g id="shape12-53" v:mID="12" v:groupContext="shape" v:layerMember="0" transform="translate(251.811,-365.882)">
			<title>Decision.12</title>
			<desc>Does the window have a parent?</desc>
			<v:custProps>
				<v:cp v:nameU="Cost" v:lbl="Cost" v:type="7" v:format="@" v:langID="1033"/>
				<v:cp v:nameU="Duration" v:lbl="Duration" v:type="2" v:langID="1033"/>
				<v:cp v:nameU="Resources" v:lbl="Resources" v:langID="1033"/>
			</v:custProps>
			<v:userDefs>
				<v:ud v:nameU="visVersion" v:val="VT0(11):26"/>
			</v:userDefs>
			<v:textBlock v:margins="rect(2,2,2,2)" v:tabSpace="42.5197"/>
			<v:textRect cx="46.063" cy="814.252" width="76.78" height="41.4567"/>
			<g id="shadow12-54" v:groupContext="shadow" v:shadowOffsetX="4.25197" v:shadowOffsetY="-4.25197"
					transform="matrix(1,0,0,1,4.25197,4.25197)" class="st3">
				<path d="M0 814.25 L46.06 786.61 L92.13 814.25 L46.06 841.89 L0 814.25 Z" class="st4"/>
			</g>
			<path d="M0 814.25 L46.06 786.61 L92.13 814.25 L46.06 841.89 L0 814.25 Z" class="st5"/>
			<text x="15.59" y="811.85" class="st6" v:langID="1044"><v:paragraph v:horizAlign="1"/><v:tabList/>Does the window <tspan
						x="19.36" dy="1.2em" class="st7">have a parent</tspan>?</text>		</g>
		<g id="shape13-60" v:mID="13" v:groupContext="shape" v:layerMember="1" transform="translate(251.811,-386.433)">
			<title>Dynamic connector.13</title>
			<desc>No</desc>
			<v:textBlock v:margins="rect(4,4,4,4)" v:tabSpace="42.5197"/>
			<v:textRect cx="-13.937" cy="834.803" width="40" height="17.6036"/>
			<path d="M0 834.8 L-20.43 834.8" class="st1"/>
			<rect v:rectContext="textBkgnd" x="-19.4252" y="830.003" width="10.2266" height="9.59985" class="st8"/>
			<text x="-19.05" y="837.2" class="st6" v:langID="1044"><v:paragraph v:horizAlign="1"/><v:tabList/>No</text>		</g>
		<g id="shape14-67" v:mID="14" v:groupContext="shape" v:layerMember="1" transform="translate(319.134,-333)">
			<title>Dynamic connector.14</title>
			<desc>No</desc>
			<v:textBlock v:margins="rect(4,4,4,4)" v:tabSpace="42.5197"/>
			<v:textRect cx="-21.2598" cy="836.079" width="40" height="17.6036"/>
			<path d="M0 841.89 L-21.26 841.89 L-21.26 816.45" class="st1"/>
			<rect v:rectContext="textBkgnd" x="-26.748" y="831.279" width="10.2266" height="9.59985" class="st8"/>
			<text x="-26.37" y="838.48" class="st6" v:langID="1044"><v:paragraph v:horizAlign="1"/><v:tabList/>No</text>		</g>
		<g id="shape15-74" v:mID="15" v:groupContext="shape" v:layerMember="1" transform="translate(188.504,-372.26)">
			<title>Dynamic connector.15</title>
			<path d="M0 841.89 L0 936.57 L66.5 936.57" class="st1"/>
		</g>
		<g id="shape16-79" v:mID="16" v:groupContext="shape" v:layerMember="1" transform="translate(297.874,-421.157)">
			<title>Dynamic connector.16</title>
			<desc>Yes</desc>
			<v:textBlock v:margins="rect(4,4,4,4)" v:tabSpace="42.5197"/>
			<v:textRect cx="4.96063" cy="813.543" width="40" height="17.6036"/>
			<path d="M0 841.89 L0 813.54 L30.83 813.54" class="st1"/>
			<rect v:rectContext="textBkgnd" x="-2.30677" y="808.744" width="13.7851" height="9.59985" class="st8"/>
			<text x="-1.93" y="815.94" class="st6" v:langID="1044"><v:paragraph v:horizAlign="1"/><v:tabList/>Yes</text>		</g>
		<g id="shape1-86" v:mID="1" v:groupContext="shape" v:layerMember="0" transform="translate(265.276,-504.567)">
			<title>Process</title>
			<desc>Get command event recipient</desc>
			<v:custProps>
				<v:cp v:nameU="Cost" v:lbl="Cost" v:type="7" v:format="@" v:langID="1033"/>
				<v:cp v:nameU="Duration" v:lbl="Duration" v:type="2" v:langID="1033"/>
				<v:cp v:nameU="Resources" v:lbl="Resources" v:langID="1033"/>
			</v:custProps>
			<v:userDefs>
				<v:ud v:nameU="visVersion" v:val="VT0(11):26"/>
			</v:userDefs>
			<v:textBlock v:margins="rect(2,2,2,2)" v:tabSpace="42.5197"/>
			<v:textRect cx="35.4331" cy="824.882" width="70.87" height="34.0157"/>
			<g id="shadow1-87" v:groupContext="shadow" v:shadowOffsetX="4.25197" v:shadowOffsetY="-4.25197"
					transform="matrix(1,0,0,1,4.25197,4.25197)" class="st3">
				<rect x="0" y="807.874" width="70.8661" height="34.0157" class="st4"/>
			</g>
			<rect x="0" y="807.874" width="70.8661" height="34.0157" class="st5"/>
			<text x="10.3" y="822.48" class="st6" v:langID="1044"><v:paragraph v:horizAlign="1"/><v:tabList/>Get command <tspan
						x="9.41" dy="1.2em" class="st7">event recipient</tspan></text>		</g>
		<g id="shape4-93" v:mID="4" v:groupContext="shape" v:layerMember="1" transform="translate(300.709,-504.567)">
			<title>Dynamic connector.4</title>
			<path d="M0 841.89 L0 861.52 L70.87 861.52 L70.87 868.25" class="st1"/>
		</g>
	</g>
</svg>
