<?xml version="1.0" encoding="UTF-8" standalone="no"?>
<!DOCTYPE svg PUBLIC "-//W3C//DTD SVG 1.0//EN" "http://www.w3.org/TR/2001/REC-SVG-20010904/DTD/svg10.dtd">
<!-- Generated by Microsoft Visio 11.0, SVG Export, v1.0 gfx_win_event_handling_keyboard_event.svg Keyboard event -->
<svg xmlns="http://www.w3.org/2000/svg" xmlns:v="http://schemas.microsoft.com/visio/2003/SVGExtensions/" width="8.26772in"
		height="11.6929in" viewBox="0 0 595.276 841.89" xml:space="preserve" color-interpolation-filters="sRGB" class="st9">
	<v:documentProperties v:langID="1033" v:viewMarkup="false"/>

	<style type="text/css">
	<![CDATA[
		.st1 {visibility:visible}
		.st2 {fill:#4979c0;fill-opacity:0.2;stroke:#4979c0;stroke-linecap:round;stroke-linejoin:round;stroke-opacity:0.2;stroke-width:2.16}
		.st3 {fill:url(#grad36-6);stroke:#000000;stroke-linecap:round;stroke-linejoin:round;stroke-width:2.16}
		.st4 {fill:#000000;font-family:Arial;font-size:0.666664em}
		.st5 {font-size:1em}
		.st6 {marker-end:url(#mrkr4-14);stroke:#4677bf;stroke-linecap:round;stroke-linejoin:round;stroke-width:1.2}
		.st7 {fill:#4677bf;fill-opacity:1;stroke:#4677bf;stroke-opacity:1;stroke-width:0.32258064516129}
		.st8 {fill:#ffffff;stroke:none;stroke-linecap:butt;stroke-width:7.2}
		.st9 {fill:none;fill-rule:evenodd;font-size:12;overflow:visible;stroke-linecap:square;stroke-miterlimit:3}
	]]>
	</style>

	<defs id="Patterns_And_Gradients">
		<radialGradient id="grad36-6" v:fillPattern="36" v:foreground="#e8eef7" v:background="#b7c9e3" cx="0" cy="0" r="1">
			<stop offset="0" style="stop-color:#e8eef7;stop-opacity:1"/>
			<stop offset="1" style="stop-color:#b7c9e3;stop-opacity:1"/>
		</radialGradient>
	</defs>
	<defs id="Markers">
		<g id="lend4">
			<path d="M 2 1 L 0 0 L 2 -1 L 2 1 " style="stroke:none"/>
		</g>
		<marker id="mrkr4-14" class="st7" v:arrowType="4" v:arrowSize="2" v:setback="6.2" refX="-6.2" orient="auto"
				markerUnits="strokeWidth">
			<use xlink:href="#lend4" transform="scale(-3.1,-3.1) "/>
		</marker>
	</defs>
	<g v:mID="0" v:index="1" v:groupContext="foregroundPage">
		<v:userDefs>
			<v:ud v:nameU="SchemeName" v:val="VT4(Default)"/>
		</v:userDefs>
		<title>Keyboard event</title>
		<v:pageProperties v:drawingScale="0.0393701" v:pageScale="0.0393701" v:drawingUnits="24" v:shadowOffsetX="4.25197"
				v:shadowOffsetY="-4.25197"/>
		<v:layer v:name="Flowchart" v:index="0"/>
		<v:layer v:name="Connector" v:index="1"/>
		<g id="shape2-1" v:mID="2" v:groupContext="shape" v:layerMember="0" transform="translate(231.024,-597.543)">
			<title>Decision</title>
			<desc>Does a window have focus?</desc>
			<v:custProps>
				<v:cp v:nameU="Cost" v:lbl="Cost" v:type="7" v:format="@" v:langID="1033"/>
				<v:cp v:nameU="Duration" v:lbl="Duration" v:type="2" v:langID="1033"/>
				<v:cp v:nameU="Resources" v:lbl="Resources" v:langID="1033"/>
			</v:custProps>
			<v:userDefs>
				<v:ud v:nameU="visVersion" v:val="VT0(11):26"/>
			</v:userDefs>
			<v:textBlock v:margins="rect(2,2,2,2)" v:tabSpace="42.5197"/>
			<v:textRect cx="45.3543" cy="814.677" width="75.6" height="40.8189"/>
			<g id="shadow2-2" v:groupContext="shadow" v:shadowOffsetX="4.25197" v:shadowOffsetY="-4.25197"
					transform="matrix(1,0,0,1,4.25197,4.25197)" class="st1">
				<path d="M0 814.68 L45.35 787.46 L90.71 814.68 L45.35 841.89 L0 814.68 Z" class="st2"/>
			</g>
			<path d="M0 814.68 L45.35 787.46 L90.71 814.68 L45.35 841.89 L0 814.68 Z" class="st3"/>
			<text x="18.23" y="812.28" class="st4" v:langID="1044"><v:paragraph v:horizAlign="1"/><v:tabList/>Does a window <tspan
						x="23.79" dy="1.2em" class="st5">have focus</tspan>?</text>		</g>
		<g id="shape3-9" v:mID="3" v:groupContext="shape" v:layerMember="1" transform="translate(269.291,-671.811)">
			<title>Dynamic connector</title>
			<path d="M7.09 841.89 L7.09 854.29" class="st6"/>
		</g>
		<g id="shape4-15" v:mID="4" v:groupContext="shape" v:layerMember="0" transform="translate(128.976,-489.685)">
			<title>Process.4</title>
			<desc>Discard event</desc>
			<v:custProps>
				<v:cp v:nameU="Cost" v:lbl="Cost" v:type="7" v:format="@" v:langID="1033"/>
				<v:cp v:nameU="Duration" v:lbl="Duration" v:type="2" v:langID="1033"/>
				<v:cp v:nameU="Resources" v:lbl="Resources" v:langID="1033"/>
			</v:custProps>
			<v:userDefs>
				<v:ud v:nameU="visVersion" v:val="VT0(11):26"/>
			</v:userDefs>
			<v:textBlock v:margins="rect(2,2,2,2)" v:tabSpace="42.5197"/>
			<v:textRect cx="35.4331" cy="820.63" width="70.87" height="42.5197"/>
			<g id="shadow4-16" v:groupContext="shadow" v:shadowOffsetX="4.25197" v:shadowOffsetY="-4.25197"
					transform="matrix(1,0,0,1,4.25197,4.25197)" class="st1">
				<rect x="0" y="799.37" width="70.8661" height="42.5197" class="st2"/>
			</g>
			<rect x="0" y="799.37" width="70.8661" height="42.5197" class="st3"/>
			<text x="21.87" y="818.23" class="st4" v:langID="1044"><v:paragraph v:horizAlign="1"/><v:tabList/>Discard<v:newlineChar/><tspan
						x="25.64" dy="1.2em" class="st5">event</tspan></text>		</g>
		<g id="shape5-22" v:mID="5" v:groupContext="shape" v:layerMember="1" transform="translate(231.024,-624.756)">
			<title>Dynamic connector.5</title>
			<desc>No</desc>
			<v:textBlock v:margins="rect(4,4,4,4)" v:tabSpace="42.5197"/>
			<v:textRect cx="-66.6142" cy="854.858" width="40" height="17.6036"/>
			<path d="M0 841.89 L-66.61 841.89 L-66.61 927" class="st6"/>
			<rect v:rectContext="textBkgnd" x="-72.1023" y="850.059" width="10.2266" height="9.59985" class="st8"/>
			<text x="-71.73" y="857.26" class="st4" v:langID="1044"><v:paragraph v:horizAlign="1"/><v:tabList/>No</text>		</g>
		<g id="shape7-29" v:mID="7" v:groupContext="shape" v:layerMember="1" transform="translate(321.732,-624.756)">
			<title>Dynamic connector.7</title>
			<desc>Yes</desc>
			<v:textBlock v:margins="rect(4,4,4,4)" v:tabSpace="42.5197"/>
			<v:textRect cx="25.5118" cy="847.417" width="40" height="17.6036"/>
			<path d="M0 841.89 L25.51 841.89 L25.51 871.02" class="st6"/>
			<rect v:rectContext="textBkgnd" x="18.2444" y="842.618" width="13.7851" height="9.59985" class="st8"/>
			<text x="18.62" y="849.82" class="st4" v:langID="1044"><v:paragraph v:horizAlign="1"/><v:tabList/>Yes</text>		</g>
		<g id="shape6-36" v:mID="6" v:groupContext="shape" v:layerMember="0" transform="translate(311.811,-545.669)">
			<title>Process.6</title>
			<desc>Run event handler for window</desc>
			<v:custProps>
				<v:cp v:nameU="Cost" v:lbl="Cost" v:type="7" v:format="@" v:langID="1033"/>
				<v:cp v:nameU="Duration" v:lbl="Duration" v:type="2" v:langID="1033"/>
				<v:cp v:nameU="Resources" v:lbl="Resources" v:langID="1033"/>
			</v:custProps>
			<v:userDefs>
				<v:ud v:nameU="visVersion" v:val="VT0(11):26"/>
			</v:userDefs>
			<v:textBlock v:margins="rect(2,2,2,2)" v:tabSpace="42.5197"/>
			<v:textRect cx="35.4331" cy="820.63" width="70.87" height="42.5197"/>
			<g id="shadow6-37" v:groupContext="shadow" v:shadowOffsetX="4.25197" v:shadowOffsetY="-4.25197"
					transform="matrix(1,0,0,1,4.25197,4.25197)" class="st1">
				<rect x="0" y="799.37" width="70.8661" height="42.5197" class="st2"/>
			</g>
			<rect x="0" y="799.37" width="70.8661" height="42.5197" class="st3"/>
			<text x="2.74" y="818.23" class="st4" v:langID="1044"><v:paragraph v:horizAlign="1"/><v:tabList/>Run event handler <tspan
						x="16.31" dy="1.2em" class="st5">for window</tspan></text>		</g>
		<g id="shape8-43" v:mID="8" v:groupContext="shape" v:layerMember="0" transform="translate(294.803,-418.961)">
			<title>Decision.8</title>
			<desc>Does the window accept the event?</desc>
			<v:custProps>
				<v:cp v:nameU="Cost" v:lbl="Cost" v:type="7" v:format="@" v:langID="1033"/>
				<v:cp v:nameU="Duration" v:lbl="Duration" v:type="2" v:langID="1033"/>
				<v:cp v:nameU="Resources" v:lbl="Resources" v:langID="1033"/>
			</v:custProps>
			<v:userDefs>
				<v:ud v:nameU="visVersion" v:val="VT0(11):26"/>
			</v:userDefs>
			<v:textBlock v:margins="rect(2,2,2,2)" v:tabSpace="42.5197"/>
			<v:textRect cx="52.4409" cy="810.425" width="87.41" height="47.1969"/>
			<g id="shadow8-44" v:groupContext="shadow" v:shadowOffsetX="4.25197" v:shadowOffsetY="-4.25197"
					transform="matrix(1,0,0,1,4.25197,4.25197)" class="st1">
				<path d="M0 810.43 L52.44 778.96 L104.88 810.43 L52.44 841.89 L0 810.43 Z" class="st2"/>
			</g>
			<path d="M0 810.43 L52.44 778.96 L104.88 810.43 L52.44 841.89 L0 810.43 Z" class="st3"/>
			<text x="21.98" y="808.03" class="st4" v:langID="1044"><v:paragraph v:horizAlign="1"/><v:tabList/>Does the window <tspan
						x="20.86" dy="1.2em" class="st5">accept the event</tspan>?</text>		</g>
		<g id="shape10-50" v:mID="10" v:groupContext="shape" v:layerMember="0" transform="translate(238.11,-380.835)">
			<title>Terminator</title>
			<desc>Done</desc>
			<v:custProps>
				<v:cp v:nameU="Cost" v:lbl="Cost" v:type="7" v:format="@" v:langID="1033"/>
				<v:cp v:nameU="Duration" v:lbl="Duration" v:type="2" v:langID="1033"/>
				<v:cp v:nameU="Resources" v:lbl="Resources" v:langID="1033"/>
			</v:custProps>
			<v:userDefs>
				<v:ud v:nameU="visVersion" v:val="VT0(11):26"/>
			</v:userDefs>
			<v:textBlock v:margins="rect(2,2,2,2)" v:tabSpace="42.5197"/>
			<v:textRect cx="35.4331" cy="827.717" width="70.87" height="28.3465"/>
			<g id="shadow10-51" v:groupContext="shadow" v:shadowOffsetX="4.25197" v:shadowOffsetY="-4.25197"
					transform="matrix(1,0,0,1,4.25197,4.25197)" class="st1">
				<path d="M14.17 841.89 L56.69 841.89 A14.1732 14.1732 -180 0 0 56.69 813.54 L14.17 813.54 A14.1732 14.1732 -180 1
							 0 14.17 841.89 Z" class="st2"/>
			</g>
			<path d="M14.17 841.89 L56.69 841.89 A14.1732 14.1732 -180 0 0 56.69 813.54 L14.17 813.54 A14.1732 14.1732 -180 1 0 14.17
						 841.89 Z" class="st3"/>
			<text x="25.86" y="830.12" class="st4" v:langID="1044"><v:paragraph v:horizAlign="1"/><v:tabList/>Done</text>		</g>
		<g id="shape1-56" v:mID="1" v:groupContext="shape" v:layerMember="0" transform="translate(240.945,-671.811)">
			<title>Terminator.1</title>
			<desc>Keyboard event</desc>
			<v:custProps>
				<v:cp v:nameU="Cost" v:lbl="Cost" v:type="7" v:format="@" v:langID="1033"/>
				<v:cp v:nameU="Duration" v:lbl="Duration" v:type="2" v:langID="1033"/>
				<v:cp v:nameU="Resources" v:lbl="Resources" v:langID="1033"/>
			</v:custProps>
			<v:userDefs>
				<v:ud v:nameU="visVersion" v:val="VT0(11):26"/>
			</v:userDefs>
			<v:textBlock v:margins="rect(2,2,2,2)" v:tabSpace="42.5197"/>
			<v:textRect cx="35.4331" cy="827.717" width="70.87" height="28.3465"/>
			<g id="shadow1-57" v:groupContext="shadow" v:shadowOffsetX="4.25197" v:shadowOffsetY="-4.25197"
					transform="matrix(1,0,0,1,4.25197,4.25197)" class="st1">
				<path d="M14.17 841.89 L56.69 841.89 A14.1732 14.1732 -180 0 0 56.69 813.54 L14.17 813.54 A14.1732 14.1732 -180 1
							 0 14.17 841.89 Z" class="st2"/>
			</g>
			<path d="M14.17 841.89 L56.69 841.89 A14.1732 14.1732 -180 0 0 56.69 813.54 L14.17 813.54 A14.1732 14.1732 -180 1 0 14.17
						 841.89 Z" class="st3"/>
			<text x="7.41" y="830.12" class="st4" v:langID="1044"><v:paragraph v:horizAlign="1"/><v:tabList/>Keyboard event</text>		</g>
		<g id="shape9-62" v:mID="9" v:groupContext="shape" v:layerMember="1" transform="translate(347.244,-418.961)">
			<title>Dynamic connector.9</title>
			<desc>Yes</desc>
			<v:textBlock v:margins="rect(4,4,4,4)" v:tabSpace="42.5197"/>
			<v:textRect cx="-7.15748" cy="865.843" width="40" height="17.6036"/>
			<path d="M0 841.89 L0 865.84 L-30.83 865.84" class="st6"/>
			<rect v:rectContext="textBkgnd" x="-14.4249" y="861.043" width="13.7851" height="9.59985" class="st8"/>
			<text x="-14.05" y="868.24" class="st4" v:langID="1044"><v:paragraph v:horizAlign="1"/><v:tabList/>Yes</text>		</g>
		<g id="shape11-69" v:mID="11" v:groupContext="shape" v:layerMember="1" transform="translate(340.157,-545.669)">
			<title>Dynamic connector.11</title>
			<path d="M7.09 841.89 L7.09 898.23" class="st6"/>
		</g>
		<g id="shape12-74" v:mID="12" v:groupContext="shape" v:layerMember="0" transform="translate(227.48,-483.307)">
			<title>Decision.12</title>
			<desc>Does the window have a parent?</desc>
			<v:custProps>
				<v:cp v:nameU="Cost" v:lbl="Cost" v:type="7" v:format="@" v:langID="1033"/>
				<v:cp v:nameU="Duration" v:lbl="Duration" v:type="2" v:langID="1033"/>
				<v:cp v:nameU="Resources" v:lbl="Resources" v:langID="1033"/>
			</v:custProps>
			<v:userDefs>
				<v:ud v:nameU="visVersion" v:val="VT0(11):26"/>
			</v:userDefs>
			<v:textBlock v:margins="rect(2,2,2,2)" v:tabSpace="42.5197"/>
			<v:textRect cx="46.063" cy="814.252" width="76.78" height="41.4567"/>
			<g id="shadow12-75" v:groupContext="shadow" v:shadowOffsetX="4.25197" v:shadowOffsetY="-4.25197"
					transform="matrix(1,0,0,1,4.25197,4.25197)" class="st1">
				<path d="M0 814.25 L46.06 786.61 L92.13 814.25 L46.06 841.89 L0 814.25 Z" class="st2"/>
			</g>
			<path d="M0 814.25 L46.06 786.61 L92.13 814.25 L46.06 841.89 L0 814.25 Z" class="st3"/>
			<text x="15.59" y="811.85" class="st4" v:langID="1044"><v:paragraph v:horizAlign="1"/><v:tabList/>Does the window <tspan
						x="19.36" dy="1.2em" class="st5">have a parent</tspan>?</text>		</g>
		<g id="shape13-81" v:mID="13" v:groupContext="shape" v:layerMember="1" transform="translate(227.48,-503.858)">
			<title>Dynamic connector.13</title>
			<desc>No</desc>
			<v:textBlock v:margins="rect(4,4,4,4)" v:tabSpace="42.5197"/>
			<v:textRect cx="-13.8189" cy="834.803" width="40" height="17.6036"/>
			<path d="M0 834.8 L-20.2 834.8" class="st6"/>
			<rect v:rectContext="textBkgnd" x="-19.3071" y="830.003" width="10.2266" height="9.59985" class="st8"/>
			<text x="-18.93" y="837.2" class="st4" v:langID="1044"><v:paragraph v:horizAlign="1"/><v:tabList/>No</text>		</g>
		<g id="shape14-88" v:mID="14" v:groupContext="shape" v:layerMember="1" transform="translate(294.803,-450.425)">
			<title>Dynamic connector.14</title>
			<desc>No</desc>
			<v:textBlock v:margins="rect(4,4,4,4)" v:tabSpace="42.5197"/>
			<v:textRect cx="-21.2598" cy="836.079" width="40" height="17.6036"/>
			<path d="M0 841.89 L-21.26 841.89 L-21.26 816.45" class="st6"/>
			<rect v:rectContext="textBkgnd" x="-26.748" y="831.279" width="10.2266" height="9.59985" class="st8"/>
			<text x="-26.37" y="838.48" class="st4" v:langID="1044"><v:paragraph v:horizAlign="1"/><v:tabList/>No</text>		</g>
		<g id="shape15-95" v:mID="15" v:groupContext="shape" v:layerMember="1" transform="translate(164.409,-489.685)">
			<title>Dynamic connector.15</title>
			<path d="M0 841.89 L0 936.57 L66.26 936.57" class="st6"/>
		</g>
		<g id="shape16-100" v:mID="16" v:groupContext="shape" v:layerMember="1" transform="translate(273.543,-538.583)">
			<title>Dynamic connector.16</title>
			<desc>Yes</desc>
			<v:textBlock v:margins="rect(4,4,4,4)" v:tabSpace="42.5197"/>
			<v:textRect cx="4.96063" cy="813.543" width="40" height="17.6036"/>
			<path d="M0 841.89 L0 813.54 L30.83 813.54" class="st6"/>
			<rect v:rectContext="textBkgnd" x="-2.30677" y="808.744" width="13.7851" height="9.59985" class="st8"/>
			<text x="-1.93" y="815.94" class="st4" v:langID="1044"><v:paragraph v:horizAlign="1"/><v:tabList/>Yes</text>		</g>
	</g>
</svg>
