<?xml version="1.0" encoding="UTF-8" standalone="no"?>
<!DOCTYPE svg PUBLIC "-//W3C//DTD SVG 1.0//EN" "http://www.w3.org/TR/2001/REC-SVG-20010904/DTD/svg10.dtd">
<!-- Generated by Microsoft Visio 11.0, SVG Export, v1.0 gfx_draw_bitmap_tiled.svg Page-1 -->
<svg xmlns="http://www.w3.org/2000/svg" xmlns:v="http://schemas.microsoft.com/visio/2003/SVGExtensions/" width="8.26772in"
		height="11.6929in" viewBox="0 0 595.276 841.89" xml:space="preserve" color-interpolation-filters="sRGB" class="st16">
	<v:documentProperties v:langID="1033" v:viewMarkup="false"/>

	<style type="text/css">
	<![CDATA[
		.st1 {fill:none;stroke:none;stroke-linecap:round;stroke-linejoin:round;stroke-width:0.72}
		.st2 {fill:#000000;font-family:Arial;font-size:1.99999em}
		.st3 {visibility:visible}
		.st4 {marker-end:url(#mrkr13-10);stroke:#4979c0;stroke-linecap:round;stroke-linejoin:round;stroke-opacity:0.2;stroke-width:2.16}
		.st5 {fill:#4979c0;fill-opacity:0.2;stroke:#4979c0;stroke-opacity:0.2;stroke-width:0.46153846153846}
		.st6 {marker-end:url(#mrkr13-17);stroke:#000000;stroke-linecap:round;stroke-linejoin:round;stroke-width:2.16}
		.st7 {fill:#000000;fill-opacity:1;stroke:#000000;stroke-opacity:1;stroke-width:0.46153846153846}
		.st8 {marker-start:url(#mrkr13-27);stroke:#4979c0;stroke-linecap:round;stroke-linejoin:round;stroke-opacity:0.2;stroke-width:2.16}
		.st9 {marker-start:url(#mrkr13-33);stroke:#000000;stroke-linecap:round;stroke-linejoin:round;stroke-width:2.16}
		.st10 {fill:none;stroke:#4979c0;stroke-dasharray:15.12,10.8;stroke-linecap:round;stroke-linejoin:round;stroke-opacity:0.2;stroke-width:2.16}
		.st11 {fill:none;stroke:#000000;stroke-dasharray:15.12,10.8;stroke-linecap:round;stroke-linejoin:round;stroke-width:2.16}
		.st12 {fill:none;stroke:#4979c0;stroke-dasharray:2.16,4.32;stroke-linecap:round;stroke-linejoin:round;stroke-opacity:0.2;stroke-width:2.16}
		.st13 {fill:none;stroke:#00ff00;stroke-dasharray:2.16,4.32;stroke-linecap:round;stroke-linejoin:round;stroke-width:2.16}
		.st14 {fill:none;stroke:#4979c0;stroke-linecap:round;stroke-linejoin:round;stroke-opacity:0.2;stroke-width:3.12}
		.st15 {fill:none;stroke:#3366ff;stroke-linecap:round;stroke-linejoin:round;stroke-width:3.12}
		.st16 {fill:none;fill-rule:evenodd;font-size:12;overflow:visible;stroke-linecap:square;stroke-miterlimit:3}
	]]>
	</style>

	<defs id="Patterns_And_Gradients">
		<radialGradient id="grad36-14" v:fillPattern="36" v:foreground="#e8eef7" v:background="#b7c9e3" cx="0" cy="0" r="1">
			<stop offset="0" style="stop-color:#e8eef7;stop-opacity:1"/>
			<stop offset="1" style="stop-color:#b7c9e3;stop-opacity:1"/>
		</radialGradient>
	</defs>
	<defs id="Markers">
		<g id="lend13">
			<path d="M 3 1 L 0 0 L 3 -1 L 3 1 " style="stroke:none"/>
		</g>
		<marker id="mrkr13-10" class="st5" v:arrowType="13" v:arrowSize="2" v:setback="6.5" refX="-6.5" orient="auto"
				markerUnits="strokeWidth">
			<use xlink:href="#lend13" transform="scale(-2.1666666666667,-2.1666666666667) "/>
		</marker>
		<marker id="mrkr13-17" class="st7" v:arrowType="13" v:arrowSize="2" v:setback="6.5" refX="-6.5" orient="auto"
				markerUnits="strokeWidth">
			<use xlink:href="#lend13" transform="scale(-2.1666666666667,-2.1666666666667) "/>
		</marker>
		<marker id="mrkr13-27" class="st5" v:arrowType="13" v:arrowSize="2" v:setback="6.33333" refX="6.3333333333333"
				orient="auto" markerUnits="strokeWidth">
			<use xlink:href="#lend13" transform="scale(2.1666666666667) "/>
		</marker>
		<marker id="mrkr13-33" class="st7" v:arrowType="13" v:arrowSize="2" v:setback="6.33333" refX="6.3333333333333"
				orient="auto" markerUnits="strokeWidth">
			<use xlink:href="#lend13" transform="scale(2.1666666666667) "/>
		</marker>
	</defs>
	<g v:mID="0" v:index="1" v:groupContext="foregroundPage">
		<v:userDefs>
			<v:ud v:nameU="SchemeName" v:val="VT4(Default)"/>
		</v:userDefs>
		<title>Page-1</title>
		<v:pageProperties v:drawingScale="0.0393701" v:pageScale="0.0393701" v:drawingUnits="24" v:shadowOffsetX="4.25197"
				v:shadowOffsetY="-4.25197"/>
		<v:layer v:name="Flowchart" v:index="0"/>
		<v:layer v:name="Connector" v:index="1"/>
		<g id="shape12-1" v:mID="12" v:groupContext="shape" transform="translate(28.3465,-666.142)">
			<title>Sheet.12</title>
			<desc>Tile origin</desc>
			<v:textBlock v:margins="rect(2,2,2,2)" v:tabSpace="42.5197"/>
			<v:textRect cx="70.8661" cy="820.63" width="141.74" height="42.5197"/>
			<rect x="0" y="799.37" width="141.732" height="42.5197" class="st1"/>
			<text x="18.86" y="827.83" class="st2" v:langID="1044"><v:paragraph v:horizAlign="1"/><v:tabList/>Tile origin</text>		</g>
		<g id="shape13-4" v:mID="13" v:groupContext="shape" transform="translate(868.061,323.848) rotate(101.31)">
			<title>Sheet.13</title>
			<g id="shadow13-5" v:groupContext="shadow" v:shadowOffsetX="4.25197" v:shadowOffsetY="-4.25197"
					transform="matrix(1,1.01644E-018,1.01644E-018,1,3.33552,-5.00328)" class="st3">
				<path d="M0 841.89 L14.87 841.89" class="st4"/>
			</g>
			<path d="M0 841.89 L14.87 841.89" class="st6"/>
		</g>
		<g id="shape17-18" v:mID="17" v:groupContext="shape" transform="translate(162.992,-300.301)">
			<title>Sheet.17</title>
			<desc>Output area</desc>
			<v:textBlock v:margins="rect(2,2,2,2)" v:tabSpace="42.5197"/>
			<v:textRect cx="67.3228" cy="814.961" width="134.65" height="53.8583"/>
			<rect x="0" y="788.031" width="134.646" height="53.8583" class="st1"/>
			<text x="3.95" y="822.16" class="st2" v:langID="1044"><v:paragraph v:horizAlign="1"/><v:tabList/>Output area</text>		</g>
		<g id="shape15-21" v:mID="15" v:groupContext="shape" transform="translate(1102.7,973.679) rotate(126.17)">
			<title>Sheet.15</title>
			<g id="shadow15-22" v:groupContext="shadow" v:shadowOffsetX="4.25197" v:shadowOffsetY="-4.25197"
					transform="matrix(1,2.92735E-018,2.92735E-018,1,0.923018,-5.94193)" class="st3">
				<path d="M13.68 841.89 L14.04 841.89 L30.02 841.89" class="st8"/>
			</g>
			<path d="M13.68 841.89 L14.04 841.89 L30.02 841.89" class="st9"/>
		</g>
		<g id="shape18-34" v:mID="18" v:groupContext="shape" transform="translate(338.031,-300.301)">
			<title>Sheet.18</title>
			<desc>Drawn tiles</desc>
			<v:textBlock v:margins="rect(2,2,2,2)" v:tabSpace="42.5197"/>
			<v:textRect cx="67.3228" cy="814.961" width="134.65" height="53.8583"/>
			<rect x="0" y="788.031" width="134.646" height="53.8583" class="st1"/>
			<text x="7.98" y="822.16" class="st2" v:langID="1044"><v:paragraph v:horizAlign="1"/><v:tabList/>Drawn tiles</text>		</g>
		<g id="shape19-37" v:mID="19" v:groupContext="shape" transform="translate(171.374,-666.142)">
			<title>Sheet.19</title>
			<desc>Tiles not drawn</desc>
			<v:textBlock v:margins="rect(2,2,2,2)" v:tabSpace="42.5197"/>
			<v:textRect cx="101.4" cy="820.63" width="202.8" height="42.5197"/>
			<rect x="0" y="799.37" width="202.799" height="42.5197" class="st1"/>
			<text x="20.03" y="827.83" class="st2" v:langID="1044"><v:paragraph v:horizAlign="1"/><v:tabList/>Tiles not drawn</text>		</g>
		<g id="shape26-40" v:mID="26" v:groupContext="shape" transform="translate(1011.09,323.848) rotate(101.31)">
			<title>Sheet.26</title>
			<g id="shadow26-41" v:groupContext="shadow" v:shadowOffsetX="4.25197" v:shadowOffsetY="-4.25197"
					transform="matrix(1,1.01644E-018,1.01644E-018,1,3.33552,-5.00328)" class="st3">
				<path d="M0 841.89 L14.87 841.89" class="st4"/>
			</g>
			<path d="M0 841.89 L14.87 841.89" class="st6"/>
		</g>
		<g id="shape21-51" v:mID="21" v:groupContext="shape" v:layerMember="0" transform="translate(36.8504,-436.951)">
			<title>Process.21</title>
			<v:custProps>
				<v:cp v:nameU="Cost" v:lbl="Cost" v:type="7" v:format="@" v:langID="1033"/>
				<v:cp v:nameU="Duration" v:lbl="Duration" v:type="2" v:langID="1033"/>
				<v:cp v:nameU="Resources" v:lbl="Resources" v:langID="1033"/>
			</v:custProps>
			<v:userDefs>
				<v:ud v:nameU="visVersion" v:val="VT0(11):26"/>
			</v:userDefs>
			<v:textBlock v:margins="rect(2,2,2,2)" v:tabSpace="42.5197"/>
			<g id="shadow21-52" v:groupContext="shadow" v:shadowOffsetX="4.25197" v:shadowOffsetY="-4.25197"
					transform="matrix(1,0,0,1,4.25197,4.25197)" class="st3">
				<path d="M0 841.89 L120.47 841.89 L120.47 769.61 L0 769.61 L0 841.89 Z" class="st10"/>
			</g>
			<path d="M0 841.89 L120.47 841.89 L120.47 769.61 L0 769.61 L0 841.89 Z" class="st11"/>
		</g>
		<g id="shape22-55" v:mID="22" v:groupContext="shape" v:layerMember="0" transform="translate(36.8504,-365.083)">
			<title>Process.22</title>
			<v:custProps>
				<v:cp v:nameU="Cost" v:lbl="Cost" v:type="7" v:format="@" v:langID="1033"/>
				<v:cp v:nameU="Duration" v:lbl="Duration" v:type="2" v:langID="1033"/>
				<v:cp v:nameU="Resources" v:lbl="Resources" v:langID="1033"/>
			</v:custProps>
			<v:userDefs>
				<v:ud v:nameU="visVersion" v:val="VT0(11):26"/>
			</v:userDefs>
			<v:textBlock v:margins="rect(2,2,2,2)" v:tabSpace="42.5197"/>
			<g id="shadow22-56" v:groupContext="shadow" v:shadowOffsetX="4.25197" v:shadowOffsetY="-4.25197"
					transform="matrix(1,0,0,1,4.25197,4.25197)" class="st3">
				<path d="M0 841.89 L120.47 841.89 L120.47 769.61 L0 769.61 L0 841.89 Z" class="st10"/>
			</g>
			<path d="M0 841.89 L120.47 841.89 L120.47 769.61 L0 769.61 L0 841.89 Z" class="st11"/>
		</g>
		<g id="shape23-59" v:mID="23" v:groupContext="shape" v:layerMember="0" transform="translate(157.323,-583.106)">
			<title>Process.23</title>
			<v:custProps>
				<v:cp v:nameU="Cost" v:lbl="Cost" v:type="7" v:format="@" v:langID="1033"/>
				<v:cp v:nameU="Duration" v:lbl="Duration" v:type="2" v:langID="1033"/>
				<v:cp v:nameU="Resources" v:lbl="Resources" v:langID="1033"/>
			</v:custProps>
			<v:userDefs>
				<v:ud v:nameU="visVersion" v:val="VT0(11):26"/>
			</v:userDefs>
			<v:textBlock v:margins="rect(2,2,2,2)" v:tabSpace="42.5197"/>
			<g id="shadow23-60" v:groupContext="shadow" v:shadowOffsetX="4.25197" v:shadowOffsetY="-4.25197"
					transform="matrix(1,0,0,1,4.25197,4.25197)" class="st3">
				<path d="M0 841.89 L120.47 841.89 L120.47 769.61 L0 769.61 L0 841.89 Z" class="st10"/>
			</g>
			<path d="M0 841.89 L120.47 841.89 L120.47 769.61 L0 769.61 L0 841.89 Z" class="st11"/>
		</g>
		<g id="shape24-63" v:mID="24" v:groupContext="shape" v:layerMember="0" transform="translate(277.795,-583.106)">
			<title>Process.24</title>
			<v:custProps>
				<v:cp v:nameU="Cost" v:lbl="Cost" v:type="7" v:format="@" v:langID="1033"/>
				<v:cp v:nameU="Duration" v:lbl="Duration" v:type="2" v:langID="1033"/>
				<v:cp v:nameU="Resources" v:lbl="Resources" v:langID="1033"/>
			</v:custProps>
			<v:userDefs>
				<v:ud v:nameU="visVersion" v:val="VT0(11):26"/>
			</v:userDefs>
			<v:textBlock v:margins="rect(2,2,2,2)" v:tabSpace="42.5197"/>
			<g id="shadow24-64" v:groupContext="shadow" v:shadowOffsetX="4.25197" v:shadowOffsetY="-4.25197"
					transform="matrix(1,0,0,1,4.25197,4.25197)" class="st3">
				<path d="M0 841.89 L120.47 841.89 L120.47 769.61 L0 769.61 L0 841.89 Z" class="st10"/>
			</g>
			<path d="M0 841.89 L120.47 841.89 L120.47 769.61 L0 769.61 L0 841.89 Z" class="st11"/>
		</g>
		<g id="shape25-67" v:mID="25" v:groupContext="shape" v:layerMember="0" transform="translate(398.268,-583.106)">
			<title>Process.25</title>
			<v:custProps>
				<v:cp v:nameU="Cost" v:lbl="Cost" v:type="7" v:format="@" v:langID="1033"/>
				<v:cp v:nameU="Duration" v:lbl="Duration" v:type="2" v:langID="1033"/>
				<v:cp v:nameU="Resources" v:lbl="Resources" v:langID="1033"/>
			</v:custProps>
			<v:userDefs>
				<v:ud v:nameU="visVersion" v:val="VT0(11):26"/>
			</v:userDefs>
			<v:textBlock v:margins="rect(2,2,2,2)" v:tabSpace="42.5197"/>
			<g id="shadow25-68" v:groupContext="shadow" v:shadowOffsetX="4.25197" v:shadowOffsetY="-4.25197"
					transform="matrix(1,0,0,1,4.25197,4.25197)" class="st3">
				<path d="M0 841.89 L120.47 841.89 L120.47 769.61 L0 769.61 L0 841.89 Z" class="st10"/>
			</g>
			<path d="M0 841.89 L120.47 841.89 L120.47 769.61 L0 769.61 L0 841.89 Z" class="st11"/>
		</g>
		<g id="group14-71" transform="translate(157.323,-365.083)" v:mID="14" v:groupContext="group">
			<title>Sheet.14</title>
			<g id="shape2-72" v:mID="2" v:groupContext="shape" v:layerMember="0" transform="translate(7.19425E-014,-143.736)">
				<title>Process.2</title>
				<v:custProps>
					<v:cp v:nameU="Cost" v:lbl="Cost" v:type="7" v:format="@" v:langID="1033"/>
					<v:cp v:nameU="Duration" v:lbl="Duration" v:type="2" v:langID="1033"/>
					<v:cp v:nameU="Resources" v:lbl="Resources" v:langID="1033"/>
				</v:custProps>
				<v:userDefs>
					<v:ud v:nameU="visVersion" v:val="VT0(11):26"/>
				</v:userDefs>
				<v:textBlock v:margins="rect(2,2,2,2)" v:tabSpace="42.5197"/>
				<g id="shadow2-73" v:groupContext="shadow" v:shadowOffsetX="4.25197" v:shadowOffsetY="-4.25197"
						transform="matrix(1,0,0,1,4.25197,4.25197)" class="st3">
					<path d="M0 841.89 L120.47 841.89 L120.47 769.61 L0 769.61 L0 841.89 Z" class="st12"/>
				</g>
				<path d="M0 841.89 L120.47 841.89 L120.47 769.61 L0 769.61 L0 841.89 Z" class="st13"/>
			</g>
			<g id="shape3-76" v:mID="3" v:groupContext="shape" v:layerMember="0" transform="translate(120.472,-143.736)">
				<title>Process.3</title>
				<v:custProps>
					<v:cp v:nameU="Cost" v:lbl="Cost" v:type="7" v:format="@" v:langID="1033"/>
					<v:cp v:nameU="Duration" v:lbl="Duration" v:type="2" v:langID="1033"/>
					<v:cp v:nameU="Resources" v:lbl="Resources" v:langID="1033"/>
				</v:custProps>
				<v:userDefs>
					<v:ud v:nameU="visVersion" v:val="VT0(11):26"/>
				</v:userDefs>
				<v:textBlock v:margins="rect(2,2,2,2)" v:tabSpace="42.5197"/>
				<g id="shadow3-77" v:groupContext="shadow" v:shadowOffsetX="4.25197" v:shadowOffsetY="-4.25197"
						transform="matrix(1,0,0,1,4.25197,4.25197)" class="st3">
					<path d="M0 841.89 L120.47 841.89 L120.47 769.61 L0 769.61 L0 841.89 Z" class="st12"/>
				</g>
				<path d="M0 841.89 L120.47 841.89 L120.47 769.61 L0 769.61 L0 841.89 Z" class="st13"/>
			</g>
			<g id="shape4-80" v:mID="4" v:groupContext="shape" v:layerMember="0" transform="translate(240.945,-143.736)">
				<title>Process.4</title>
				<v:custProps>
					<v:cp v:nameU="Cost" v:lbl="Cost" v:type="7" v:format="@" v:langID="1033"/>
					<v:cp v:nameU="Duration" v:lbl="Duration" v:type="2" v:langID="1033"/>
					<v:cp v:nameU="Resources" v:lbl="Resources" v:langID="1033"/>
				</v:custProps>
				<v:userDefs>
					<v:ud v:nameU="visVersion" v:val="VT0(11):26"/>
				</v:userDefs>
				<v:textBlock v:margins="rect(2,2,2,2)" v:tabSpace="42.5197"/>
				<g id="shadow4-81" v:groupContext="shadow" v:shadowOffsetX="4.25197" v:shadowOffsetY="-4.25197"
						transform="matrix(1,0,0,1,4.25197,4.25197)" class="st3">
					<path d="M0 841.89 L120.47 841.89 L120.47 769.61 L0 769.61 L0 841.89 Z" class="st12"/>
				</g>
				<path d="M0 841.89 L120.47 841.89 L120.47 769.61 L0 769.61 L0 841.89 Z" class="st13"/>
			</g>
			<g id="shape5-84" v:mID="5" v:groupContext="shape" v:layerMember="0" transform="translate(3.9968E-014,-71.868)">
				<title>Process.5</title>
				<v:custProps>
					<v:cp v:nameU="Cost" v:lbl="Cost" v:type="7" v:format="@" v:langID="1033"/>
					<v:cp v:nameU="Duration" v:lbl="Duration" v:type="2" v:langID="1033"/>
					<v:cp v:nameU="Resources" v:lbl="Resources" v:langID="1033"/>
				</v:custProps>
				<v:userDefs>
					<v:ud v:nameU="visVersion" v:val="VT0(11):26"/>
				</v:userDefs>
				<v:textBlock v:margins="rect(2,2,2,2)" v:tabSpace="42.5197"/>
				<g id="shadow5-85" v:groupContext="shadow" v:shadowOffsetX="4.25197" v:shadowOffsetY="-4.25197"
						transform="matrix(1,0,0,1,4.25197,4.25197)" class="st3">
					<path d="M0 841.89 L120.47 841.89 L120.47 769.61 L0 769.61 L0 841.89 Z" class="st12"/>
				</g>
				<path d="M0 841.89 L120.47 841.89 L120.47 769.61 L0 769.61 L0 841.89 Z" class="st13"/>
			</g>
			<g id="shape6-88" v:mID="6" v:groupContext="shape" v:layerMember="0" transform="translate(120.472,-71.868)">
				<title>Process.6</title>
				<v:custProps>
					<v:cp v:nameU="Cost" v:lbl="Cost" v:type="7" v:format="@" v:langID="1033"/>
					<v:cp v:nameU="Duration" v:lbl="Duration" v:type="2" v:langID="1033"/>
					<v:cp v:nameU="Resources" v:lbl="Resources" v:langID="1033"/>
				</v:custProps>
				<v:userDefs>
					<v:ud v:nameU="visVersion" v:val="VT0(11):26"/>
				</v:userDefs>
				<v:textBlock v:margins="rect(2,2,2,2)" v:tabSpace="42.5197"/>
				<g id="shadow6-89" v:groupContext="shadow" v:shadowOffsetX="4.25197" v:shadowOffsetY="-4.25197"
						transform="matrix(1,0,0,1,4.25197,4.25197)" class="st3">
					<path d="M0 841.89 L120.47 841.89 L120.47 769.61 L0 769.61 L0 841.89 Z" class="st12"/>
				</g>
				<path d="M0 841.89 L120.47 841.89 L120.47 769.61 L0 769.61 L0 841.89 Z" class="st13"/>
			</g>
			<g id="shape7-92" v:mID="7" v:groupContext="shape" v:layerMember="0" transform="translate(240.945,-71.868)">
				<title>Process.7</title>
				<v:custProps>
					<v:cp v:nameU="Cost" v:lbl="Cost" v:type="7" v:format="@" v:langID="1033"/>
					<v:cp v:nameU="Duration" v:lbl="Duration" v:type="2" v:langID="1033"/>
					<v:cp v:nameU="Resources" v:lbl="Resources" v:langID="1033"/>
				</v:custProps>
				<v:userDefs>
					<v:ud v:nameU="visVersion" v:val="VT0(11):26"/>
				</v:userDefs>
				<v:textBlock v:margins="rect(2,2,2,2)" v:tabSpace="42.5197"/>
				<g id="shadow7-93" v:groupContext="shadow" v:shadowOffsetX="4.25197" v:shadowOffsetY="-4.25197"
						transform="matrix(1,0,0,1,4.25197,4.25197)" class="st3">
					<path d="M0 841.89 L120.47 841.89 L120.47 769.61 L0 769.61 L0 841.89 Z" class="st12"/>
				</g>
				<path d="M0 841.89 L120.47 841.89 L120.47 769.61 L0 769.61 L0 841.89 Z" class="st13"/>
			</g>
			<g id="shape8-96" v:mID="8" v:groupContext="shape" v:layerMember="0">
				<title>Process.8</title>
				<v:custProps>
					<v:cp v:nameU="Cost" v:lbl="Cost" v:type="7" v:format="@" v:langID="1033"/>
					<v:cp v:nameU="Duration" v:lbl="Duration" v:type="2" v:langID="1033"/>
					<v:cp v:nameU="Resources" v:lbl="Resources" v:langID="1033"/>
				</v:custProps>
				<v:userDefs>
					<v:ud v:nameU="visVersion" v:val="VT0(11):26"/>
				</v:userDefs>
				<v:textBlock v:margins="rect(2,2,2,2)" v:tabSpace="42.5197"/>
				<g id="shadow8-97" v:groupContext="shadow" v:shadowOffsetX="4.25197" v:shadowOffsetY="-4.25197"
						transform="matrix(1,0,0,1,4.25197,4.25197)" class="st3">
					<path d="M0 841.89 L120.47 841.89 L120.47 769.61 L0 769.61 L0 841.89 Z" class="st12"/>
				</g>
				<path d="M0 841.89 L120.47 841.89 L120.47 769.61 L0 769.61 L0 841.89 Z" class="st13"/>
			</g>
			<g id="shape9-100" v:mID="9" v:groupContext="shape" v:layerMember="0" transform="translate(120.472,0)">
				<title>Process.9</title>
				<v:custProps>
					<v:cp v:nameU="Cost" v:lbl="Cost" v:type="7" v:format="@" v:langID="1033"/>
					<v:cp v:nameU="Duration" v:lbl="Duration" v:type="2" v:langID="1033"/>
					<v:cp v:nameU="Resources" v:lbl="Resources" v:langID="1033"/>
				</v:custProps>
				<v:userDefs>
					<v:ud v:nameU="visVersion" v:val="VT0(11):26"/>
				</v:userDefs>
				<v:textBlock v:margins="rect(2,2,2,2)" v:tabSpace="42.5197"/>
				<g id="shadow9-101" v:groupContext="shadow" v:shadowOffsetX="4.25197" v:shadowOffsetY="-4.25197"
						transform="matrix(1,0,0,1,4.25197,4.25197)" class="st3">
					<path d="M0 841.89 L120.47 841.89 L120.47 769.61 L0 769.61 L0 841.89 Z" class="st12"/>
				</g>
				<path d="M0 841.89 L120.47 841.89 L120.47 769.61 L0 769.61 L0 841.89 Z" class="st13"/>
			</g>
			<g id="shape10-104" v:mID="10" v:groupContext="shape" v:layerMember="0" transform="translate(240.945,0)">
				<title>Process.10</title>
				<v:custProps>
					<v:cp v:nameU="Cost" v:lbl="Cost" v:type="7" v:format="@" v:langID="1033"/>
					<v:cp v:nameU="Duration" v:lbl="Duration" v:type="2" v:langID="1033"/>
					<v:cp v:nameU="Resources" v:lbl="Resources" v:langID="1033"/>
				</v:custProps>
				<v:userDefs>
					<v:ud v:nameU="visVersion" v:val="VT0(11):26"/>
				</v:userDefs>
				<v:textBlock v:margins="rect(2,2,2,2)" v:tabSpace="42.5197"/>
				<g id="shadow10-105" v:groupContext="shadow" v:shadowOffsetX="4.25197" v:shadowOffsetY="-4.25197"
						transform="matrix(1,0,0,1,4.25197,4.25197)" class="st3">
					<path d="M0 841.89 L120.47 841.89 L120.47 769.61 L0 769.61 L0 841.89 Z" class="st12"/>
				</g>
				<path d="M0 841.89 L120.47 841.89 L120.47 769.61 L0 769.61 L0 841.89 Z" class="st13"/>
			</g>
		</g>
		<g id="shape1-108" v:mID="1" v:groupContext="shape" v:layerMember="0" transform="translate(173.94,-398.317)">
			<title>Process</title>
			<v:custProps>
				<v:cp v:nameU="Cost" v:lbl="Cost" v:type="7" v:format="@" v:langID="1033"/>
				<v:cp v:nameU="Duration" v:lbl="Duration" v:type="2" v:langID="1033"/>
				<v:cp v:nameU="Resources" v:lbl="Resources" v:langID="1033"/>
			</v:custProps>
			<v:userDefs>
				<v:ud v:nameU="visVersion" v:val="VT0(11):26"/>
			</v:userDefs>
			<v:textBlock v:margins="rect(2,2,2,2)" v:tabSpace="42.5197"/>
			<g id="shadow1-109" v:groupContext="shadow" v:shadowOffsetX="4.25197" v:shadowOffsetY="-4.25197"
					transform="matrix(1,0,0,1,4.25197,4.25197)" class="st3">
				<rect x="0" y="674.89" width="278.333" height="167" class="st14"/>
			</g>
			<rect x="0" y="674.89" width="278.333" height="167" class="st15"/>
		</g>
		<g id="shape16-112" v:mID="16" v:groupContext="shape" transform="translate(940.417,941.911) rotate(126.17)">
			<title>Sheet.16</title>
			<g id="shadow16-113" v:groupContext="shadow" v:shadowOffsetX="4.25197" v:shadowOffsetY="-4.25197"
					transform="matrix(1,2.92735E-018,2.92735E-018,1,0.923018,-5.94193)" class="st3">
				<path d="M13.68 841.89 L14.04 841.89 L72.04 841.89" class="st8"/>
			</g>
			<path d="M13.68 841.89 L14.04 841.89 L72.04 841.89" class="st9"/>
		</g>
		<g id="shape11-123" v:mID="11" v:groupContext="shape" v:layerMember="0" transform="translate(36.8504,-583.106)">
			<title>Process.11</title>
			<v:custProps>
				<v:cp v:nameU="Cost" v:lbl="Cost" v:type="7" v:format="@" v:langID="1033"/>
				<v:cp v:nameU="Duration" v:lbl="Duration" v:type="2" v:langID="1033"/>
				<v:cp v:nameU="Resources" v:lbl="Resources" v:langID="1033"/>
			</v:custProps>
			<v:userDefs>
				<v:ud v:nameU="visVersion" v:val="VT0(11):26"/>
			</v:userDefs>
			<v:textBlock v:margins="rect(2,2,2,2)" v:tabSpace="42.5197"/>
			<g id="shadow11-124" v:groupContext="shadow" v:shadowOffsetX="4.25197" v:shadowOffsetY="-4.25197"
					transform="matrix(1,0,0,1,4.25197,4.25197)" class="st3">
				<path d="M0 841.89 L120.47 841.89 L120.47 769.61 L0 769.61 L0 841.89 Z" class="st10"/>
			</g>
			<path d="M0 841.89 L120.47 841.89 L120.47 769.61 L0 769.61 L0 841.89 Z" class="st11"/>
		</g>
		<g id="shape20-127" v:mID="20" v:groupContext="shape" v:layerMember="0" transform="translate(36.8504,-508.819)">
			<title>Process.20</title>
			<v:custProps>
				<v:cp v:nameU="Cost" v:lbl="Cost" v:type="7" v:format="@" v:langID="1033"/>
				<v:cp v:nameU="Duration" v:lbl="Duration" v:type="2" v:langID="1033"/>
				<v:cp v:nameU="Resources" v:lbl="Resources" v:langID="1033"/>
			</v:custProps>
			<v:userDefs>
				<v:ud v:nameU="visVersion" v:val="VT0(11):26"/>
			</v:userDefs>
			<v:textBlock v:margins="rect(2,2,2,2)" v:tabSpace="42.5197"/>
			<g id="shadow20-128" v:groupContext="shadow" v:shadowOffsetX="4.25197" v:shadowOffsetY="-4.25197"
					transform="matrix(1,0,0,1,4.25197,4.25197)" class="st3">
				<path d="M0 841.89 L120.47 841.89 L120.47 769.61 L0 769.61 L0 841.89 Z" class="st10"/>
			</g>
			<path d="M0 841.89 L120.47 841.89 L120.47 769.61 L0 769.61 L0 841.89 Z" class="st11"/>
		</g>
	</g>
</svg>
