<?xml version="1.0" encoding="UTF-8" standalone="no"?>
<!DOCTYPE svg PUBLIC "-//W3C//DTD SVG 1.0//EN" "http://www.w3.org/TR/2001/REC-SVG-20010904/DTD/svg10.dtd">
<!-- Generated by Microsoft Visio 11.0, SVG Export, v1.0 gfx_win_event_handling_pointer_event.svg Pointer event -->
<svg xmlns="http://www.w3.org/2000/svg" xmlns:v="http://schemas.microsoft.com/visio/2003/SVGExtensions/" width="8.26772in"
		height="11.6929in" viewBox="0 0 595.276 841.89" xml:space="preserve" color-interpolation-filters="sRGB" class="st9">
	<v:documentProperties v:langID="1033" v:viewMarkup="false"/>

	<style type="text/css">
	<![CDATA[
		.st1 {visibility:visible}
		.st2 {fill:#4979c0;fill-opacity:0.2;stroke:#4979c0;stroke-linecap:round;stroke-linejoin:round;stroke-opacity:0.2;stroke-width:2.16}
		.st3 {fill:url(#grad36-6);stroke:#000000;stroke-linecap:round;stroke-linejoin:round;stroke-width:2.16}
		.st4 {fill:#000000;font-family:Arial;font-size:0.666664em}
		.st5 {font-size:1em}
		.st6 {marker-end:url(#mrkr4-14);stroke:#4677bf;stroke-linecap:round;stroke-linejoin:round;stroke-width:1.2}
		.st7 {fill:#4677bf;fill-opacity:1;stroke:#4677bf;stroke-opacity:1;stroke-width:0.32258064516129}
		.st8 {fill:#ffffff;stroke:none;stroke-linecap:butt;stroke-width:7.2}
		.st9 {fill:none;fill-rule:evenodd;font-size:12;overflow:visible;stroke-linecap:square;stroke-miterlimit:3}
	]]>
	</style>

	<defs id="Patterns_And_Gradients">
		<radialGradient id="grad36-6" v:fillPattern="36" v:foreground="#e8eef7" v:background="#b7c9e3" cx="0" cy="0" r="1">
			<stop offset="0" style="stop-color:#e8eef7;stop-opacity:1"/>
			<stop offset="1" style="stop-color:#b7c9e3;stop-opacity:1"/>
		</radialGradient>
	</defs>
	<defs id="Markers">
		<g id="lend4">
			<path d="M 2 1 L 0 0 L 2 -1 L 2 1 " style="stroke:none"/>
		</g>
		<marker id="mrkr4-14" class="st7" v:arrowType="4" v:arrowSize="2" v:setback="6.2" refX="-6.2" orient="auto"
				markerUnits="strokeWidth">
			<use xlink:href="#lend4" transform="scale(-3.1,-3.1) "/>
		</marker>
	</defs>
	<g v:mID="5" v:index="1" v:groupContext="foregroundPage">
		<title>Pointer event</title>
		<v:pageProperties v:drawingScale="0.0393701" v:pageScale="0.0393701" v:drawingUnits="24" v:shadowOffsetX="4.25197"
				v:shadowOffsetY="-4.25197"/>
		<v:layer v:name="Flowchart" v:index="0"/>
		<v:layer v:name="Connector" v:index="1"/>
		<g id="shape1-1" v:mID="1" v:groupContext="shape" v:layerMember="0" transform="translate(255.236,-558.283)">
			<title>Decision</title>
			<desc>Has a window grabbed the pointer?</desc>
			<v:custProps>
				<v:cp v:nameU="Cost" v:lbl="Cost" v:type="7" v:format="@" v:langID="1033"/>
				<v:cp v:nameU="Duration" v:lbl="Duration" v:type="2" v:langID="1033"/>
				<v:cp v:nameU="Resources" v:lbl="Resources" v:langID="1033"/>
			</v:custProps>
			<v:userDefs>
				<v:ud v:nameU="visVersion" v:val="VT0(11):26"/>
			</v:userDefs>
			<v:textBlock v:margins="rect(2,2,2,2)" v:tabSpace="42.5197"/>
			<v:textRect cx="49.4882" cy="812.197" width="82.49" height="44.5394"/>
			<g id="shadow1-2" v:groupContext="shadow" v:shadowOffsetX="4.25197" v:shadowOffsetY="-4.25197"
					transform="matrix(1,0,0,1,4.25197,4.25197)" class="st1">
				<path d="M0 812.2 L49.49 782.5 L98.98 812.2 L49.49 841.89 L0 812.2 Z" class="st2"/>
			</g>
			<path d="M0 812.2 L49.49 782.5 L98.98 812.2 L49.49 841.89 L0 812.2 Z" class="st3"/>
			<text x="24.6" y="809.8" class="st4" v:langID="1044"><v:paragraph v:horizAlign="1"/><v:tabList/>Has a window <tspan
						x="12.58" dy="1.2em" class="st5">grabbed the pointer</tspan>?</text>		</g>
		<g id="shape2-9" v:mID="2" v:groupContext="shape" v:layerMember="1" transform="translate(311.811,-637.795)">
			<title>Dynamic connector</title>
			<path d="M-7.09 841.89 L-7.09 854.58" class="st6"/>
		</g>
		<g id="shape3-15" v:mID="3" v:groupContext="shape" v:layerMember="0" transform="translate(170.079,-315.78)">
			<title>Process.4</title>
			<desc>Discard event</desc>
			<v:custProps>
				<v:cp v:nameU="Cost" v:lbl="Cost" v:type="7" v:format="@" v:langID="1033"/>
				<v:cp v:nameU="Duration" v:lbl="Duration" v:type="2" v:langID="1033"/>
				<v:cp v:nameU="Resources" v:lbl="Resources" v:langID="1033"/>
			</v:custProps>
			<v:userDefs>
				<v:ud v:nameU="visVersion" v:val="VT0(11):26"/>
			</v:userDefs>
			<v:textBlock v:margins="rect(2,2,2,2)" v:tabSpace="42.5197"/>
			<v:textRect cx="35.4331" cy="820.63" width="70.87" height="42.5197"/>
			<g id="shadow3-16" v:groupContext="shadow" v:shadowOffsetX="4.25197" v:shadowOffsetY="-4.25197"
					transform="matrix(1,0,0,1,4.25197,4.25197)" class="st1">
				<rect x="0" y="799.37" width="70.8661" height="42.5197" class="st2"/>
			</g>
			<rect x="0" y="799.37" width="70.8661" height="42.5197" class="st3"/>
			<text x="21.87" y="818.23" class="st4" v:langID="1044"><v:paragraph v:horizAlign="1"/><v:tabList/>Discard<v:newlineChar/><tspan
						x="25.64" dy="1.2em" class="st5">event</tspan></text>		</g>
		<g id="shape4-22" v:mID="4" v:groupContext="shape" v:layerMember="1" transform="translate(255.236,-587.976)">
			<title>Dynamic connector.4</title>
			<desc>Yes</desc>
			<v:textBlock v:margins="rect(4,4,4,4)" v:tabSpace="42.5197"/>
			<v:textRect cx="-41.7638" cy="841.89" width="40" height="17.6036"/>
			<path d="M0 841.89 L-49.72 841.89 L-49.72 868.25" class="st6"/>
			<rect v:rectContext="textBkgnd" x="-49.0312" y="837.09" width="13.7851" height="9.59985" class="st8"/>
			<text x="-48.66" y="844.29" class="st4" v:langID="1044"><v:paragraph v:horizAlign="1"/><v:tabList/>Yes</text>		</g>
		<g id="shape5-29" v:mID="5" v:groupContext="shape" v:layerMember="1" transform="translate(354.213,-587.976)">
			<title>Dynamic connector.7</title>
			<desc>No</desc>
			<v:textBlock v:margins="rect(4,4,4,4)" v:tabSpace="42.5197"/>
			<v:textRect cx="66.5669" cy="841.89" width="40" height="17.6036"/>
			<path d="M0 841.89 L95.08 841.89 L95.08 872.5" class="st6"/>
			<rect v:rectContext="textBkgnd" x="61.0788" y="837.09" width="10.2266" height="9.59985" class="st8"/>
			<text x="61.45" y="844.29" class="st4" v:langID="1044"><v:paragraph v:horizAlign="1"/><v:tabList/>No</text>		</g>
		<g id="shape6-36" v:mID="6" v:groupContext="shape" v:layerMember="0" transform="translate(413.858,-392.598)">
			<title>Process.6</title>
			<desc>Run event handler for window</desc>
			<v:custProps>
				<v:cp v:nameU="Cost" v:lbl="Cost" v:type="7" v:format="@" v:langID="1033"/>
				<v:cp v:nameU="Duration" v:lbl="Duration" v:type="2" v:langID="1033"/>
				<v:cp v:nameU="Resources" v:lbl="Resources" v:langID="1033"/>
			</v:custProps>
			<v:userDefs>
				<v:ud v:nameU="visVersion" v:val="VT0(11):26"/>
			</v:userDefs>
			<v:textBlock v:margins="rect(2,2,2,2)" v:tabSpace="42.5197"/>
			<v:textRect cx="35.4331" cy="820.63" width="70.87" height="42.5197"/>
			<g id="shadow6-37" v:groupContext="shadow" v:shadowOffsetX="4.25197" v:shadowOffsetY="-4.25197"
					transform="matrix(1,0,0,1,4.25197,4.25197)" class="st1">
				<rect x="0" y="799.37" width="70.8661" height="42.5197" class="st2"/>
			</g>
			<rect x="0" y="799.37" width="70.8661" height="42.5197" class="st3"/>
			<text x="2.74" y="818.23" class="st4" v:langID="1044"><v:paragraph v:horizAlign="1"/><v:tabList/>Run event handler <tspan
						x="16.31" dy="1.2em" class="st5">for window</tspan></text>		</g>
		<g id="shape7-43" v:mID="7" v:groupContext="shape" v:layerMember="0" transform="translate(396.85,-305.575)">
			<title>Decision.8</title>
			<desc>Does the window accept the event?</desc>
			<v:custProps>
				<v:cp v:nameU="Cost" v:lbl="Cost" v:type="7" v:format="@" v:langID="1033"/>
				<v:cp v:nameU="Duration" v:lbl="Duration" v:type="2" v:langID="1033"/>
				<v:cp v:nameU="Resources" v:lbl="Resources" v:langID="1033"/>
			</v:custProps>
			<v:userDefs>
				<v:ud v:nameU="visVersion" v:val="VT0(11):26"/>
			</v:userDefs>
			<v:textBlock v:margins="rect(2,2,2,2)" v:tabSpace="42.5197"/>
			<v:textRect cx="52.4409" cy="810.425" width="87.41" height="47.1969"/>
			<g id="shadow7-44" v:groupContext="shadow" v:shadowOffsetX="4.25197" v:shadowOffsetY="-4.25197"
					transform="matrix(1,0,0,1,4.25197,4.25197)" class="st1">
				<path d="M0 810.43 L52.44 778.96 L104.88 810.43 L52.44 841.89 L0 810.43 Z" class="st2"/>
			</g>
			<path d="M0 810.43 L52.44 778.96 L104.88 810.43 L52.44 841.89 L0 810.43 Z" class="st3"/>
			<text x="21.98" y="808.03" class="st4" v:langID="1044"><v:paragraph v:horizAlign="1"/><v:tabList/>Does the window <tspan
						x="20.86" dy="1.2em" class="st5">accept the event</tspan>?</text>		</g>
		<g id="shape8-50" v:mID="8" v:groupContext="shape" v:layerMember="0" transform="translate(262.441,-263.409)">
			<title>Terminator</title>
			<desc>Done</desc>
			<v:custProps>
				<v:cp v:nameU="Cost" v:lbl="Cost" v:type="7" v:format="@" v:langID="1033"/>
				<v:cp v:nameU="Duration" v:lbl="Duration" v:type="2" v:langID="1033"/>
				<v:cp v:nameU="Resources" v:lbl="Resources" v:langID="1033"/>
			</v:custProps>
			<v:userDefs>
				<v:ud v:nameU="visVersion" v:val="VT0(11):26"/>
			</v:userDefs>
			<v:textBlock v:margins="rect(2,2,2,2)" v:tabSpace="42.5197"/>
			<v:textRect cx="35.4331" cy="827.717" width="70.87" height="28.3465"/>
			<g id="shadow8-51" v:groupContext="shadow" v:shadowOffsetX="4.25197" v:shadowOffsetY="-4.25197"
					transform="matrix(1,0,0,1,4.25197,4.25197)" class="st1">
				<path d="M14.17 841.89 L56.69 841.89 A14.1732 14.1732 -180 0 0 56.69 813.54 L14.17 813.54 A14.1732 14.1732 -180 1
							 0 14.17 841.89 Z" class="st2"/>
			</g>
			<path d="M14.17 841.89 L56.69 841.89 A14.1732 14.1732 -180 0 0 56.69 813.54 L14.17 813.54 A14.1732 14.1732 -180 1 0 14.17
						 841.89 Z" class="st3"/>
			<text x="25.86" y="830.12" class="st4" v:langID="1044"><v:paragraph v:horizAlign="1"/><v:tabList/>Done</text>		</g>
		<g id="shape9-56" v:mID="9" v:groupContext="shape" v:layerMember="0" transform="translate(269.291,-637.795)">
			<title>Terminator.1</title>
			<desc>Pointer event</desc>
			<v:custProps>
				<v:cp v:nameU="Cost" v:lbl="Cost" v:type="7" v:format="@" v:langID="1033"/>
				<v:cp v:nameU="Duration" v:lbl="Duration" v:type="2" v:langID="1033"/>
				<v:cp v:nameU="Resources" v:lbl="Resources" v:langID="1033"/>
			</v:custProps>
			<v:userDefs>
				<v:ud v:nameU="visVersion" v:val="VT0(11):26"/>
			</v:userDefs>
			<v:textBlock v:margins="rect(2,2,2,2)" v:tabSpace="42.5197"/>
			<v:textRect cx="35.4331" cy="827.717" width="70.87" height="28.3465"/>
			<g id="shadow9-57" v:groupContext="shadow" v:shadowOffsetX="4.25197" v:shadowOffsetY="-4.25197"
					transform="matrix(1,0,0,1,4.25197,4.25197)" class="st1">
				<path d="M14.17 841.89 L56.69 841.89 A14.1732 14.1732 -180 0 0 56.69 813.54 L14.17 813.54 A14.1732 14.1732 -180 1
							 0 14.17 841.89 Z" class="st2"/>
			</g>
			<path d="M14.17 841.89 L56.69 841.89 A14.1732 14.1732 -180 0 0 56.69 813.54 L14.17 813.54 A14.1732 14.1732 -180 1 0 14.17
						 841.89 Z" class="st3"/>
			<text x="11.85" y="830.12" class="st4" v:langID="1044"><v:paragraph v:horizAlign="1"/><v:tabList/>Pointer event</text>		</g>
		<g id="shape10-62" v:mID="10" v:groupContext="shape" v:layerMember="1" transform="translate(449.291,-305.575)">
			<title>Dynamic connector.9</title>
			<desc>Yes</desc>
			<v:textBlock v:margins="rect(4,4,4,4)" v:tabSpace="42.5197"/>
			<v:textRect cx="-43.9961" cy="869.882" width="40" height="17.6036"/>
			<path d="M0 841.89 L0 869.88 L-108.54 869.88" class="st6"/>
			<rect v:rectContext="textBkgnd" x="-51.2635" y="865.082" width="13.7851" height="9.59985" class="st8"/>
			<text x="-50.89" y="872.28" class="st4" v:langID="1044"><v:paragraph v:horizAlign="1"/><v:tabList/>Yes</text>		</g>
		<g id="shape11-69" v:mID="11" v:groupContext="shape" v:layerMember="1" transform="translate(456.378,-392.598)">
			<title>Dynamic connector.11</title>
			<path d="M-7.09 841.89 L-7.09 858.54" class="st6"/>
		</g>
		<g id="shape15-74" v:mID="15" v:groupContext="shape" v:layerMember="1" transform="translate(205.512,-315.78)">
			<title>Dynamic connector.15</title>
			<path d="M0 841.89 L0 880.09 L49.49 880.09" class="st6"/>
		</g>
		<g id="shape17-79" v:mID="17" v:groupContext="shape" v:layerMember="0" transform="translate(170.079,-511.654)">
			<title>Process.17</title>
			<desc>Run event handler for window</desc>
			<v:custProps>
				<v:cp v:nameU="Cost" v:lbl="Cost" v:type="7" v:format="@" v:langID="1033"/>
				<v:cp v:nameU="Duration" v:lbl="Duration" v:type="2" v:langID="1033"/>
				<v:cp v:nameU="Resources" v:lbl="Resources" v:langID="1033"/>
			</v:custProps>
			<v:userDefs>
				<v:ud v:nameU="visVersion" v:val="VT0(11):26"/>
			</v:userDefs>
			<v:textBlock v:margins="rect(2,2,2,2)" v:tabSpace="42.5197"/>
			<v:textRect cx="35.4331" cy="820.63" width="70.87" height="42.5197"/>
			<g id="shadow17-80" v:groupContext="shadow" v:shadowOffsetX="4.25197" v:shadowOffsetY="-4.25197"
					transform="matrix(1,0,0,1,4.25197,4.25197)" class="st1">
				<rect x="0" y="799.37" width="70.8661" height="42.5197" class="st2"/>
			</g>
			<rect x="0" y="799.37" width="70.8661" height="42.5197" class="st3"/>
			<text x="2.74" y="818.23" class="st4" v:langID="1044"><v:paragraph v:horizAlign="1"/><v:tabList/>Run event handler <tspan
						x="16.31" dy="1.2em" class="st5">for window</tspan></text>		</g>
		<g id="shape19-86" v:mID="19" v:groupContext="shape" v:layerMember="0" transform="translate(153.071,-407.906)">
			<title>Decision.19</title>
			<desc>Does the window accept the event?</desc>
			<v:custProps>
				<v:cp v:nameU="Cost" v:lbl="Cost" v:type="7" v:format="@" v:langID="1033"/>
				<v:cp v:nameU="Duration" v:lbl="Duration" v:type="2" v:langID="1033"/>
				<v:cp v:nameU="Resources" v:lbl="Resources" v:langID="1033"/>
			</v:custProps>
			<v:userDefs>
				<v:ud v:nameU="visVersion" v:val="VT0(11):26"/>
			</v:userDefs>
			<v:textBlock v:margins="rect(2,2,2,2)" v:tabSpace="42.5197"/>
			<v:textRect cx="52.4409" cy="810.425" width="87.41" height="47.1969"/>
			<g id="shadow19-87" v:groupContext="shadow" v:shadowOffsetX="4.25197" v:shadowOffsetY="-4.25197"
					transform="matrix(1,0,0,1,4.25197,4.25197)" class="st1">
				<path d="M0 810.43 L52.44 778.96 L104.88 810.43 L52.44 841.89 L0 810.43 Z" class="st2"/>
			</g>
			<path d="M0 810.43 L52.44 778.96 L104.88 810.43 L52.44 841.89 L0 810.43 Z" class="st3"/>
			<text x="21.98" y="808.03" class="st4" v:langID="1044"><v:paragraph v:horizAlign="1"/><v:tabList/>Does the window <tspan
						x="20.86" dy="1.2em" class="st5">accept the event</tspan>?</text>		</g>
		<g id="shape20-93" v:mID="20" v:groupContext="shape" v:layerMember="1" transform="translate(198.425,-407.906)">
			<title>Dynamic connector.20</title>
			<desc>No</desc>
			<v:textBlock v:margins="rect(4,4,4,4)" v:tabSpace="42.5197"/>
			<v:textRect cx="7.08661" cy="866.693" width="40" height="17.6036"/>
			<path d="M7.09 841.89 L7.09 884.06" class="st6"/>
			<rect v:rectContext="textBkgnd" x="1.59845" y="861.893" width="10.2266" height="9.59985" class="st8"/>
			<text x="1.97" y="869.09" class="st4" v:langID="1044"><v:paragraph v:horizAlign="1"/><v:tabList/>No</text>		</g>
		<g id="shape18-100" v:mID="18" v:groupContext="shape" v:layerMember="1" transform="translate(198.425,-511.654)">
			<title>Dynamic connector.18</title>
			<path d="M7.09 841.89 L7.09 875.27" class="st6"/>
		</g>
		<g id="shape21-105" v:mID="21" v:groupContext="shape" v:layerMember="1" transform="translate(153.071,-439.37)">
			<title>Dynamic connector.21</title>
			<desc>Yes</desc>
			<v:textBlock v:margins="rect(4,4,4,4)" v:tabSpace="42.5197"/>
			<v:textRect cx="-21.2598" cy="977.469" width="40" height="17.6036"/>
			<path d="M0 841.89 L-21.26 841.89 L-21.26 1003.68 L101.93 1003.68" class="st6"/>
			<rect v:rectContext="textBkgnd" x="-28.5272" y="972.669" width="13.7851" height="9.59985" class="st8"/>
			<text x="-28.15" y="979.87" class="st4" v:langID="1044"><v:paragraph v:horizAlign="1"/><v:tabList/>Yes</text>		</g>
		<g id="shape12-112" v:mID="12" v:groupContext="shape" v:layerMember="0" transform="translate(413.858,-507.402)">
			<title>Process</title>
			<desc>Start at root window</desc>
			<v:custProps>
				<v:cp v:nameU="Cost" v:lbl="Cost" v:type="7" v:format="@" v:langID="1033"/>
				<v:cp v:nameU="Duration" v:lbl="Duration" v:type="2" v:langID="1033"/>
				<v:cp v:nameU="Resources" v:lbl="Resources" v:langID="1033"/>
			</v:custProps>
			<v:userDefs>
				<v:ud v:nameU="visVersion" v:val="VT0(11):26"/>
			</v:userDefs>
			<v:textBlock v:margins="rect(2,2,2,2)" v:tabSpace="42.5197"/>
			<v:textRect cx="35.4331" cy="820.63" width="70.87" height="42.5197"/>
			<g id="shadow12-113" v:groupContext="shadow" v:shadowOffsetX="4.25197" v:shadowOffsetY="-4.25197"
					transform="matrix(1,0,0,1,4.25197,4.25197)" class="st1">
				<rect x="0" y="799.37" width="70.8661" height="42.5197" class="st2"/>
			</g>
			<rect x="0" y="799.37" width="70.8661" height="42.5197" class="st3"/>
			<text x="14.53" y="818.23" class="st4" v:langID="1044"><v:paragraph v:horizAlign="1"/><v:tabList/>Start at root <tspan
						x="22.08" dy="1.2em" class="st5">window</tspan></text>		</g>
		<g id="shape13-119" v:mID="13" v:groupContext="shape" v:layerMember="1" transform="translate(442.205,-507.402)">
			<title>Dynamic connector.13</title>
			<path d="M7.09 841.89 L7.09 850.04" class="st6"/>
		</g>
		<g id="shape14-124" v:mID="14" v:groupContext="shape" v:layerMember="0" transform="translate(413.858,-449.291)">
			<title>Process.14</title>
			<desc>Find child window under pointer</desc>
			<v:custProps>
				<v:cp v:nameU="Cost" v:lbl="Cost" v:type="7" v:format="@" v:langID="1033"/>
				<v:cp v:nameU="Duration" v:lbl="Duration" v:type="2" v:langID="1033"/>
				<v:cp v:nameU="Resources" v:lbl="Resources" v:langID="1033"/>
			</v:custProps>
			<v:userDefs>
				<v:ud v:nameU="visVersion" v:val="VT0(11):26"/>
			</v:userDefs>
			<v:textBlock v:margins="rect(2,2,2,2)" v:tabSpace="42.5197"/>
			<v:textRect cx="35.4331" cy="820.63" width="70.87" height="42.5197"/>
			<g id="shadow14-125" v:groupContext="shadow" v:shadowOffsetX="4.25197" v:shadowOffsetY="-4.25197"
					transform="matrix(1,0,0,1,4.25197,4.25197)" class="st1">
				<rect x="0" y="799.37" width="70.8661" height="42.5197" class="st2"/>
			</g>
			<rect x="0" y="799.37" width="70.8661" height="42.5197" class="st3"/>
			<text x="3.85" y="818.23" class="st4" v:langID="1044"><v:paragraph v:horizAlign="1"/><v:tabList/>Find child window <tspan
						x="11.85" dy="1.2em" class="st5">under pointer</tspan></text>		</g>
		<g id="shape16-131" v:mID="16" v:groupContext="shape" v:layerMember="1" transform="translate(442.205,-449.291)">
			<title>Dynamic connector.16</title>
			<path d="M7.09 841.89 L7.09 848.62" class="st6"/>
		</g>
		<g id="shape22-136" v:mID="22" v:groupContext="shape" v:layerMember="0" transform="translate(271.535,-307.949)">
			<title>Decision.22</title>
			<desc>More children left to try?</desc>
			<v:custProps>
				<v:cp v:nameU="Cost" v:lbl="Cost" v:type="7" v:format="@" v:langID="1033"/>
				<v:cp v:nameU="Duration" v:lbl="Duration" v:type="2" v:langID="1033"/>
				<v:cp v:nameU="Resources" v:lbl="Resources" v:langID="1033"/>
			</v:custProps>
			<v:userDefs>
				<v:ud v:nameU="visVersion" v:val="VT0(11):26"/>
			</v:userDefs>
			<v:textBlock v:margins="rect(2,2,2,2)" v:tabSpace="42.5197"/>
			<v:textRect cx="48.4843" cy="812.799" width="80.81" height="43.6358"/>
			<g id="shadow22-137" v:groupContext="shadow" v:shadowOffsetX="4.25197" v:shadowOffsetY="-4.25197"
					transform="matrix(1,0,0,1,4.25197,4.25197)" class="st1">
				<path d="M0 812.8 L48.48 783.71 L96.97 812.8 L48.48 841.89 L0 812.8 Z" class="st2"/>
			</g>
			<path d="M0 812.8 L48.48 783.71 L96.97 812.8 L48.48 841.89 L0 812.8 Z" class="st3"/>
			<text x="13.35" y="810.4" class="st4" v:langID="1044"><v:paragraph v:horizAlign="1"/><v:tabList/>More children left to <tspan
						x="41.81" dy="1.2em" class="st5">try</tspan>?</text>		</g>
		<g id="shape23-143" v:mID="23" v:groupContext="shape" v:layerMember="1" transform="translate(271.535,-329.953)">
			<title>Dynamic connector.23</title>
			<desc>No</desc>
			<v:textBlock v:margins="rect(4,4,4,4)" v:tabSpace="42.5197"/>
			<v:textRect cx="-15.2953" cy="834.803" width="40" height="17.6036"/>
			<path d="M0 834.8 L-17.01 834.8 L-23.15 834.8" class="st6"/>
			<rect v:rectContext="textBkgnd" x="-20.7834" y="830.003" width="10.2266" height="9.59985" class="st8"/>
			<text x="-20.41" y="837.2" class="st4" v:langID="1044"><v:paragraph v:horizAlign="1"/><v:tabList/>No</text>		</g>
		<g id="shape24-150" v:mID="24" v:groupContext="shape" v:layerMember="1" transform="translate(396.85,-329.953)">
			<title>Dynamic connector.24</title>
			<desc>No</desc>
			<v:textBlock v:margins="rect(4,4,4,4)" v:tabSpace="42.5197"/>
			<v:textRect cx="-14.1732" cy="834.803" width="40" height="17.6036"/>
			<path d="M0 834.8 L-20.91 834.8" class="st6"/>
			<rect v:rectContext="textBkgnd" x="-19.6614" y="830.003" width="10.2266" height="9.59985" class="st8"/>
			<text x="-19.29" y="837.2" class="st4" v:langID="1044"><v:paragraph v:horizAlign="1"/><v:tabList/>No</text>		</g>
		<g id="shape25-157" v:mID="25" v:groupContext="shape" v:layerMember="1" transform="translate(320.02,-366.13)">
			<title>Dynamic connector.25</title>
			<desc>Yes</desc>
			<v:textBlock v:margins="rect(4,4,4,4)" v:tabSpace="42.5197"/>
			<v:textRect cx="0" cy="742.76" width="40" height="17.6036"/>
			<path d="M0 841.89 L0 737.47 L86.4 737.47" class="st6"/>
			<rect v:rectContext="textBkgnd" x="-7.2674" y="737.96" width="13.7851" height="9.59985" class="st8"/>
			<text x="-6.89" y="745.16" class="st4" v:langID="1044"><v:paragraph v:horizAlign="1"/><v:tabList/>Yes</text>		</g>
	</g>
</svg>
